G04 EAGLE Gerber RS-274X export*
G75*
%MOMM*%
%FSLAX34Y34*%
%LPD*%
%INBottom Copper*%
%IPPOS*%
%AMOC8*
5,1,8,0,0,1.08239X$1,22.5*%
G01*
%ADD10C,0.105000*%
%ADD11C,1.108000*%
%ADD12C,0.099000*%
%ADD13C,0.101750*%
%ADD14C,0.102000*%
%ADD15C,0.504800*%
%ADD16C,0.200000*%
%ADD17C,0.300000*%


D10*
X-47875Y-8475D02*
X-55825Y-8475D01*
X-55825Y-2525D01*
X-47875Y-2525D01*
X-47875Y-8475D01*
X-47875Y-7478D02*
X-55825Y-7478D01*
X-55825Y-6481D02*
X-47875Y-6481D01*
X-47875Y-5484D02*
X-55825Y-5484D01*
X-55825Y-4487D02*
X-47875Y-4487D01*
X-47875Y-3490D02*
X-55825Y-3490D01*
X-55825Y2525D02*
X-47875Y2525D01*
X-55825Y2525D02*
X-55825Y8475D01*
X-47875Y8475D01*
X-47875Y2525D01*
X-47875Y3522D02*
X-55825Y3522D01*
X-55825Y4519D02*
X-47875Y4519D01*
X-47875Y5516D02*
X-55825Y5516D01*
X-55825Y6513D02*
X-47875Y6513D01*
X-47875Y7510D02*
X-55825Y7510D01*
X-66175Y2525D02*
X-74125Y2525D01*
X-74125Y8475D01*
X-66175Y8475D01*
X-66175Y2525D01*
X-66175Y3522D02*
X-74125Y3522D01*
X-74125Y4519D02*
X-66175Y4519D01*
X-66175Y5516D02*
X-74125Y5516D01*
X-74125Y6513D02*
X-66175Y6513D01*
X-66175Y7510D02*
X-74125Y7510D01*
X-74125Y-8475D02*
X-66175Y-8475D01*
X-74125Y-8475D02*
X-74125Y-2525D01*
X-66175Y-2525D01*
X-66175Y-8475D01*
X-66175Y-7478D02*
X-74125Y-7478D01*
X-74125Y-6481D02*
X-66175Y-6481D01*
X-66175Y-5484D02*
X-74125Y-5484D01*
X-74125Y-4487D02*
X-66175Y-4487D01*
X-66175Y-3490D02*
X-74125Y-3490D01*
D11*
X38460Y43200D02*
X49540Y43200D01*
X49540Y-43200D02*
X38460Y-43200D01*
X79960Y-43200D02*
X91040Y-43200D01*
X91040Y43200D02*
X79960Y43200D01*
D12*
X42505Y34255D02*
X29995Y34255D01*
X42505Y34255D02*
X42505Y29745D01*
X29995Y29745D01*
X29995Y34255D01*
X29995Y30685D02*
X42505Y30685D01*
X42505Y31625D02*
X29995Y31625D01*
X29995Y32565D02*
X42505Y32565D01*
X42505Y33505D02*
X29995Y33505D01*
X29995Y-29745D02*
X42505Y-29745D01*
X42505Y-34255D01*
X29995Y-34255D01*
X29995Y-29745D01*
X29995Y-33315D02*
X42505Y-33315D01*
X42505Y-32375D02*
X29995Y-32375D01*
X29995Y-31435D02*
X42505Y-31435D01*
X42505Y-30495D02*
X29995Y-30495D01*
X29995Y-21745D02*
X42505Y-21745D01*
X42505Y-26255D01*
X29995Y-26255D01*
X29995Y-21745D01*
X29995Y-25315D02*
X42505Y-25315D01*
X42505Y-24375D02*
X29995Y-24375D01*
X29995Y-23435D02*
X42505Y-23435D01*
X42505Y-22495D02*
X29995Y-22495D01*
X29995Y26255D02*
X42505Y26255D01*
X42505Y21745D01*
X29995Y21745D01*
X29995Y26255D01*
X29995Y22685D02*
X42505Y22685D01*
X42505Y23625D02*
X29995Y23625D01*
X29995Y24565D02*
X42505Y24565D01*
X42505Y25505D02*
X29995Y25505D01*
D13*
X30009Y3366D02*
X42491Y3366D01*
X42491Y1634D01*
X30009Y1634D01*
X30009Y3366D01*
X30009Y2601D02*
X42491Y2601D01*
X42491Y-1634D02*
X30009Y-1634D01*
X42491Y-1634D02*
X42491Y-3366D01*
X30009Y-3366D01*
X30009Y-1634D01*
X30009Y-2399D02*
X42491Y-2399D01*
X42491Y-6634D02*
X30009Y-6634D01*
X42491Y-6634D02*
X42491Y-8366D01*
X30009Y-8366D01*
X30009Y-6634D01*
X30009Y-7399D02*
X42491Y-7399D01*
X42491Y8366D02*
X30009Y8366D01*
X42491Y8366D02*
X42491Y6634D01*
X30009Y6634D01*
X30009Y8366D01*
X30009Y7601D02*
X42491Y7601D01*
X42491Y13366D02*
X30009Y13366D01*
X42491Y13366D02*
X42491Y11634D01*
X30009Y11634D01*
X30009Y13366D01*
X30009Y12601D02*
X42491Y12601D01*
D14*
X42490Y18490D02*
X30010Y18490D01*
X42490Y18490D02*
X42490Y16510D01*
X30010Y16510D01*
X30010Y18490D01*
X30010Y17479D02*
X42490Y17479D01*
X42490Y18448D02*
X30010Y18448D01*
D13*
X30009Y-16634D02*
X42491Y-16634D01*
X42491Y-18366D01*
X30009Y-18366D01*
X30009Y-16634D01*
X30009Y-17399D02*
X42491Y-17399D01*
X42491Y-11634D02*
X30009Y-11634D01*
X42491Y-11634D02*
X42491Y-13366D01*
X30009Y-13366D01*
X30009Y-11634D01*
X30009Y-12399D02*
X42491Y-12399D01*
D12*
X13505Y-39505D02*
X3495Y-39505D01*
X3495Y-25495D01*
X13505Y-25495D01*
X13505Y-39505D01*
X13505Y-38565D02*
X3495Y-38565D01*
X3495Y-37625D02*
X13505Y-37625D01*
X13505Y-36685D02*
X3495Y-36685D01*
X3495Y-35745D02*
X13505Y-35745D01*
X13505Y-34805D02*
X3495Y-34805D01*
X3495Y-33865D02*
X13505Y-33865D01*
X13505Y-32925D02*
X3495Y-32925D01*
X3495Y-31985D02*
X13505Y-31985D01*
X13505Y-31045D02*
X3495Y-31045D01*
X3495Y-30105D02*
X13505Y-30105D01*
X13505Y-29165D02*
X3495Y-29165D01*
X3495Y-28225D02*
X13505Y-28225D01*
X13505Y-27285D02*
X3495Y-27285D01*
X3495Y-26345D02*
X13505Y-26345D01*
X-23495Y-39505D02*
X-33505Y-39505D01*
X-33505Y-25495D01*
X-23495Y-25495D01*
X-23495Y-39505D01*
X-23495Y-38565D02*
X-33505Y-38565D01*
X-33505Y-37625D02*
X-23495Y-37625D01*
X-23495Y-36685D02*
X-33505Y-36685D01*
X-33505Y-35745D02*
X-23495Y-35745D01*
X-23495Y-34805D02*
X-33505Y-34805D01*
X-33505Y-33865D02*
X-23495Y-33865D01*
X-23495Y-32925D02*
X-33505Y-32925D01*
X-33505Y-31985D02*
X-23495Y-31985D01*
X-23495Y-31045D02*
X-33505Y-31045D01*
X-33505Y-30105D02*
X-23495Y-30105D01*
X-23495Y-29165D02*
X-33505Y-29165D01*
X-33505Y-28225D02*
X-23495Y-28225D01*
X-23495Y-27285D02*
X-33505Y-27285D01*
X-33505Y-26345D02*
X-23495Y-26345D01*
X-23495Y25495D02*
X-33505Y25495D01*
X-33505Y39505D01*
X-23495Y39505D01*
X-23495Y25495D01*
X-23495Y26435D02*
X-33505Y26435D01*
X-33505Y27375D02*
X-23495Y27375D01*
X-23495Y28315D02*
X-33505Y28315D01*
X-33505Y29255D02*
X-23495Y29255D01*
X-23495Y30195D02*
X-33505Y30195D01*
X-33505Y31135D02*
X-23495Y31135D01*
X-23495Y32075D02*
X-33505Y32075D01*
X-33505Y33015D02*
X-23495Y33015D01*
X-23495Y33955D02*
X-33505Y33955D01*
X-33505Y34895D02*
X-23495Y34895D01*
X-23495Y35835D02*
X-33505Y35835D01*
X-33505Y36775D02*
X-23495Y36775D01*
X-23495Y37715D02*
X-33505Y37715D01*
X-33505Y38655D02*
X-23495Y38655D01*
X3495Y25495D02*
X13505Y25495D01*
X3495Y25495D02*
X3495Y39505D01*
X13505Y39505D01*
X13505Y25495D01*
X13505Y26435D02*
X3495Y26435D01*
X3495Y27375D02*
X13505Y27375D01*
X13505Y28315D02*
X3495Y28315D01*
X3495Y29255D02*
X13505Y29255D01*
X13505Y30195D02*
X3495Y30195D01*
X3495Y31135D02*
X13505Y31135D01*
X13505Y32075D02*
X3495Y32075D01*
X3495Y33015D02*
X13505Y33015D01*
X13505Y33955D02*
X3495Y33955D01*
X3495Y34895D02*
X13505Y34895D01*
X13505Y35835D02*
X3495Y35835D01*
X3495Y36775D02*
X13505Y36775D01*
X13505Y37715D02*
X3495Y37715D01*
X3495Y38655D02*
X13505Y38655D01*
D15*
X-33500Y-20000D03*
D16*
X-69150Y-5500D02*
X-70150Y-5500D01*
X-69150Y-5500D02*
X-58650Y-16000D01*
X-37500Y-16000D02*
X-33500Y-20000D01*
X-37500Y-16000D02*
X-58650Y-16000D01*
D15*
X14200Y17100D03*
D17*
X44000Y36200D02*
X44000Y43200D01*
X44000Y36200D02*
X39800Y32000D01*
X36250Y32000D01*
X36250Y-32000D02*
X39800Y-32000D01*
X44000Y-36200D01*
X44000Y-43200D01*
D15*
X-42000Y-42000D03*
D17*
X-61000Y2000D02*
X-61000Y14500D01*
X-53500Y-5500D02*
X-51850Y-5500D01*
X-53500Y-5500D02*
X-61000Y2000D01*
D15*
X-44000Y27000D03*
X-38000Y27000D03*
X-13800Y37900D03*
X-22500Y47000D03*
X-10000Y0D03*
X-22000Y0D03*
X2000Y0D03*
X-10000Y12000D03*
X-10000Y-13400D03*
X-50000Y27000D03*
X-56000Y27000D03*
X-62000Y27000D03*
X-68000Y27000D03*
X-74000Y27000D03*
X-70000Y20000D03*
D17*
X-66500Y20000D01*
X-61000Y14500D01*
D15*
X-72500Y-25000D03*
X-72500Y-45000D03*
X-70000Y13100D03*
D17*
X-70150Y12950D02*
X-70150Y5500D01*
X-70150Y12950D02*
X-70000Y13100D01*
D15*
X85800Y-20200D03*
X-40000Y-26500D03*
X-700Y-33200D03*
X-8100Y35500D03*
D17*
X-8100Y30100D02*
X-4000Y26000D01*
X-8100Y30100D02*
X-8100Y35500D01*
X-4000Y26000D02*
X-4000Y-29900D01*
X-700Y-33200D01*
D15*
X-36500Y17500D03*
X56000Y35100D03*
X20500Y-36000D03*
X-67000Y-17000D03*
X-69000Y-34100D03*
X-33000Y-46000D03*
D16*
X-34000Y-47000D01*
X-61000Y-47000D01*
X-69000Y-39000D02*
X-69000Y-34100D01*
X-69000Y-39000D02*
X-61000Y-47000D01*
D15*
X-43500Y-8500D03*
X49386Y1900D03*
X13308Y-19008D03*
X68000Y-10000D03*
D16*
X36250Y-17500D02*
X30000Y-17500D01*
X24000Y-11500D01*
X24000Y-11000D01*
D15*
X24000Y-11000D03*
D16*
X36250Y12500D02*
X47500Y12500D01*
X54414Y5586D02*
X54414Y-1900D01*
D15*
X54414Y-1900D03*
D16*
X54414Y5586D02*
X47500Y12500D01*
X36250Y2500D02*
X27500Y2500D01*
X26000Y4000D01*
D15*
X26000Y4000D03*
D16*
X36250Y2500D02*
X43000Y2500D01*
X45000Y500D01*
X45000Y-5500D01*
X43000Y-7500D01*
X36250Y-7500D01*
D15*
X24500Y-2500D03*
D16*
X36250Y-2500D01*
X24500Y-2500D02*
X21000Y1000D01*
X21000Y7000D01*
X23000Y9000D01*
X30500Y7500D02*
X36250Y7500D01*
X29000Y9000D02*
X23000Y9000D01*
X29000Y9000D02*
X30500Y7500D01*
D17*
X36250Y24000D02*
X43590Y24000D01*
X49480Y18110D01*
X89890Y18110D02*
X90000Y18000D01*
D15*
X90000Y18000D03*
D17*
X89890Y18110D02*
X49480Y18110D01*
X43590Y-24000D02*
X36250Y-24000D01*
X43590Y-24000D02*
X48980Y-18610D01*
X90000Y-4000D02*
X90000Y18000D01*
X75390Y-18610D02*
X48980Y-18610D01*
X75390Y-18610D02*
X90000Y-4000D01*
D16*
X14414Y38414D02*
X8500Y32500D01*
X14414Y38414D02*
X30000Y38414D01*
D15*
X30000Y38414D03*
X75500Y10500D03*
X-45400Y-23700D03*
D16*
X-45400Y-29600D01*
X-42500Y-32500D01*
X-28500Y-32500D01*
M02*
