G04 EAGLE Gerber RS-274X export*
G75*
%MOMM*%
%FSLAX34Y34*%
%LPD*%
%INCopper Layer 2*%
%IPPOS*%
%AMOC8*
5,1,8,0,0,1.08239X$1,22.5*%
G01*
%ADD10C,1.108000*%
%ADD11C,0.504800*%
%ADD12C,0.300000*%
%ADD13C,0.200000*%

G36*
X-36406Y-49955D02*
X-36406Y-49955D01*
X-36374Y-49957D01*
X-36267Y-49935D01*
X-36159Y-49919D01*
X-36129Y-49906D01*
X-36098Y-49900D01*
X-36001Y-49848D01*
X-35902Y-49803D01*
X-35877Y-49782D01*
X-35849Y-49767D01*
X-35770Y-49691D01*
X-35687Y-49620D01*
X-35670Y-49593D01*
X-35647Y-49570D01*
X-35593Y-49475D01*
X-35533Y-49384D01*
X-35523Y-49353D01*
X-35508Y-49325D01*
X-35482Y-49219D01*
X-35451Y-49114D01*
X-35450Y-49082D01*
X-35443Y-49051D01*
X-35448Y-48941D01*
X-35447Y-48832D01*
X-35455Y-48801D01*
X-35457Y-48769D01*
X-35493Y-48666D01*
X-35522Y-48560D01*
X-35539Y-48533D01*
X-35550Y-48502D01*
X-35603Y-48429D01*
X-35670Y-48320D01*
X-35706Y-48288D01*
X-35731Y-48253D01*
X-36525Y-47460D01*
X-36525Y-44540D01*
X-34460Y-42475D01*
X-31540Y-42475D01*
X-29475Y-44540D01*
X-29475Y-47460D01*
X-30269Y-48253D01*
X-30288Y-48279D01*
X-30313Y-48300D01*
X-30373Y-48392D01*
X-30438Y-48479D01*
X-30449Y-48509D01*
X-30467Y-48536D01*
X-30499Y-48641D01*
X-30538Y-48743D01*
X-30540Y-48775D01*
X-30549Y-48806D01*
X-30551Y-48915D01*
X-30559Y-49024D01*
X-30553Y-49056D01*
X-30553Y-49088D01*
X-30524Y-49193D01*
X-30502Y-49300D01*
X-30487Y-49329D01*
X-30478Y-49360D01*
X-30421Y-49453D01*
X-30369Y-49549D01*
X-30347Y-49572D01*
X-30330Y-49600D01*
X-30249Y-49673D01*
X-30173Y-49751D01*
X-30144Y-49767D01*
X-30121Y-49789D01*
X-30022Y-49836D01*
X-29927Y-49890D01*
X-29896Y-49898D01*
X-29867Y-49912D01*
X-29777Y-49926D01*
X-29653Y-49955D01*
X-29604Y-49953D01*
X-29562Y-49959D01*
X39074Y-49959D01*
X39106Y-49955D01*
X39138Y-49957D01*
X39245Y-49935D01*
X39353Y-49919D01*
X39383Y-49906D01*
X39414Y-49900D01*
X39511Y-49848D01*
X39610Y-49803D01*
X39635Y-49782D01*
X39663Y-49767D01*
X39742Y-49691D01*
X39825Y-49620D01*
X39842Y-49593D01*
X39865Y-49570D01*
X39919Y-49475D01*
X39979Y-49384D01*
X39989Y-49353D01*
X40004Y-49325D01*
X40030Y-49219D01*
X40062Y-49114D01*
X40062Y-49082D01*
X40069Y-49051D01*
X40064Y-48941D01*
X40065Y-48832D01*
X40057Y-48801D01*
X40055Y-48769D01*
X40019Y-48666D01*
X39990Y-48560D01*
X39973Y-48533D01*
X39963Y-48502D01*
X39909Y-48429D01*
X39842Y-48320D01*
X39806Y-48288D01*
X39781Y-48253D01*
X38907Y-47380D01*
X38190Y-46306D01*
X37695Y-45113D01*
X37613Y-44699D01*
X43500Y-44699D01*
X43563Y-44690D01*
X43628Y-44691D01*
X43702Y-44670D01*
X43779Y-44659D01*
X43837Y-44633D01*
X43899Y-44616D01*
X43965Y-44575D01*
X44003Y-44558D01*
X44011Y-44562D01*
X44076Y-44605D01*
X44138Y-44624D01*
X44196Y-44652D01*
X44265Y-44663D01*
X44346Y-44687D01*
X44431Y-44688D01*
X44500Y-44699D01*
X50387Y-44699D01*
X50305Y-45113D01*
X49810Y-46306D01*
X49093Y-47380D01*
X48219Y-48253D01*
X48200Y-48279D01*
X48175Y-48300D01*
X48115Y-48392D01*
X48050Y-48479D01*
X48039Y-48509D01*
X48021Y-48536D01*
X47989Y-48641D01*
X47950Y-48743D01*
X47948Y-48775D01*
X47938Y-48806D01*
X47937Y-48915D01*
X47929Y-49024D01*
X47935Y-49056D01*
X47935Y-49088D01*
X47964Y-49193D01*
X47986Y-49300D01*
X48001Y-49329D01*
X48010Y-49360D01*
X48067Y-49453D01*
X48119Y-49549D01*
X48141Y-49572D01*
X48158Y-49600D01*
X48239Y-49673D01*
X48315Y-49751D01*
X48343Y-49767D01*
X48367Y-49789D01*
X48465Y-49836D01*
X48561Y-49890D01*
X48592Y-49898D01*
X48621Y-49912D01*
X48711Y-49926D01*
X48835Y-49955D01*
X48884Y-49953D01*
X48926Y-49959D01*
X80574Y-49959D01*
X80606Y-49955D01*
X80638Y-49957D01*
X80745Y-49935D01*
X80853Y-49919D01*
X80883Y-49906D01*
X80914Y-49900D01*
X81011Y-49848D01*
X81110Y-49803D01*
X81135Y-49782D01*
X81163Y-49767D01*
X81242Y-49691D01*
X81325Y-49620D01*
X81342Y-49593D01*
X81365Y-49570D01*
X81419Y-49475D01*
X81479Y-49384D01*
X81489Y-49353D01*
X81504Y-49325D01*
X81530Y-49219D01*
X81562Y-49114D01*
X81562Y-49082D01*
X81569Y-49051D01*
X81564Y-48941D01*
X81565Y-48832D01*
X81557Y-48801D01*
X81555Y-48769D01*
X81519Y-48666D01*
X81490Y-48560D01*
X81473Y-48533D01*
X81463Y-48502D01*
X81409Y-48429D01*
X81342Y-48320D01*
X81306Y-48288D01*
X81281Y-48253D01*
X80407Y-47380D01*
X79690Y-46306D01*
X79195Y-45113D01*
X79113Y-44699D01*
X85000Y-44699D01*
X85063Y-44690D01*
X85128Y-44691D01*
X85202Y-44670D01*
X85279Y-44659D01*
X85337Y-44633D01*
X85399Y-44616D01*
X85465Y-44575D01*
X85503Y-44558D01*
X85511Y-44562D01*
X85576Y-44605D01*
X85638Y-44624D01*
X85696Y-44652D01*
X85765Y-44663D01*
X85846Y-44687D01*
X85931Y-44688D01*
X86000Y-44699D01*
X91887Y-44699D01*
X91805Y-45113D01*
X91310Y-46306D01*
X90593Y-47380D01*
X89719Y-48253D01*
X89700Y-48279D01*
X89675Y-48300D01*
X89615Y-48392D01*
X89550Y-48479D01*
X89539Y-48509D01*
X89521Y-48536D01*
X89489Y-48641D01*
X89450Y-48743D01*
X89448Y-48775D01*
X89438Y-48806D01*
X89437Y-48915D01*
X89429Y-49024D01*
X89435Y-49056D01*
X89435Y-49088D01*
X89464Y-49193D01*
X89486Y-49300D01*
X89501Y-49329D01*
X89510Y-49360D01*
X89567Y-49453D01*
X89619Y-49549D01*
X89641Y-49572D01*
X89658Y-49600D01*
X89739Y-49673D01*
X89815Y-49751D01*
X89843Y-49767D01*
X89867Y-49789D01*
X89965Y-49836D01*
X90061Y-49890D01*
X90092Y-49898D01*
X90121Y-49912D01*
X90211Y-49926D01*
X90335Y-49955D01*
X90384Y-49953D01*
X90426Y-49959D01*
X96460Y-49959D01*
X96524Y-49950D01*
X96588Y-49951D01*
X96663Y-49930D01*
X96739Y-49919D01*
X96798Y-49893D01*
X96860Y-49876D01*
X96926Y-49835D01*
X96996Y-49803D01*
X97045Y-49761D01*
X97100Y-49728D01*
X97152Y-49670D01*
X97210Y-49620D01*
X97246Y-49566D01*
X97289Y-49518D01*
X97322Y-49449D01*
X97365Y-49384D01*
X97384Y-49322D01*
X97412Y-49265D01*
X97423Y-49195D01*
X97447Y-49114D01*
X97448Y-49029D01*
X97459Y-48960D01*
X97459Y48960D01*
X97450Y49024D01*
X97451Y49088D01*
X97430Y49163D01*
X97419Y49239D01*
X97393Y49298D01*
X97376Y49360D01*
X97335Y49426D01*
X97303Y49496D01*
X97261Y49545D01*
X97228Y49600D01*
X97170Y49652D01*
X97120Y49710D01*
X97066Y49746D01*
X97018Y49789D01*
X96949Y49822D01*
X96884Y49865D01*
X96822Y49884D01*
X96765Y49912D01*
X96695Y49923D01*
X96614Y49947D01*
X96529Y49948D01*
X96460Y49959D01*
X90426Y49959D01*
X90394Y49955D01*
X90362Y49957D01*
X90255Y49935D01*
X90147Y49919D01*
X90117Y49906D01*
X90086Y49900D01*
X89989Y49848D01*
X89890Y49803D01*
X89865Y49782D01*
X89837Y49767D01*
X89758Y49691D01*
X89675Y49620D01*
X89658Y49593D01*
X89635Y49570D01*
X89581Y49475D01*
X89521Y49384D01*
X89511Y49353D01*
X89496Y49325D01*
X89470Y49219D01*
X89438Y49114D01*
X89438Y49082D01*
X89431Y49051D01*
X89436Y48941D01*
X89435Y48832D01*
X89443Y48801D01*
X89445Y48769D01*
X89481Y48666D01*
X89510Y48560D01*
X89527Y48533D01*
X89537Y48502D01*
X89591Y48429D01*
X89658Y48320D01*
X89694Y48288D01*
X89719Y48253D01*
X90593Y47380D01*
X91310Y46306D01*
X91805Y45113D01*
X91887Y44699D01*
X86000Y44699D01*
X85937Y44690D01*
X85872Y44691D01*
X85798Y44670D01*
X85721Y44659D01*
X85663Y44633D01*
X85601Y44616D01*
X85535Y44575D01*
X85497Y44558D01*
X85489Y44562D01*
X85424Y44605D01*
X85362Y44624D01*
X85304Y44652D01*
X85235Y44663D01*
X85154Y44687D01*
X85069Y44688D01*
X85000Y44699D01*
X79113Y44699D01*
X79195Y45113D01*
X79690Y46306D01*
X80407Y47380D01*
X81281Y48253D01*
X81300Y48279D01*
X81325Y48300D01*
X81385Y48392D01*
X81450Y48479D01*
X81461Y48509D01*
X81479Y48536D01*
X81511Y48641D01*
X81550Y48743D01*
X81552Y48775D01*
X81562Y48806D01*
X81563Y48915D01*
X81571Y49024D01*
X81565Y49056D01*
X81565Y49088D01*
X81536Y49193D01*
X81514Y49300D01*
X81499Y49329D01*
X81490Y49360D01*
X81433Y49453D01*
X81381Y49549D01*
X81359Y49572D01*
X81342Y49600D01*
X81261Y49673D01*
X81185Y49751D01*
X81157Y49767D01*
X81133Y49789D01*
X81035Y49836D01*
X80939Y49890D01*
X80908Y49898D01*
X80879Y49912D01*
X80789Y49926D01*
X80665Y49955D01*
X80616Y49953D01*
X80574Y49959D01*
X48926Y49959D01*
X48894Y49955D01*
X48862Y49957D01*
X48755Y49935D01*
X48647Y49919D01*
X48617Y49906D01*
X48586Y49900D01*
X48489Y49848D01*
X48390Y49803D01*
X48365Y49782D01*
X48337Y49767D01*
X48258Y49691D01*
X48175Y49620D01*
X48158Y49593D01*
X48135Y49570D01*
X48081Y49475D01*
X48021Y49384D01*
X48011Y49353D01*
X47996Y49325D01*
X47970Y49219D01*
X47938Y49114D01*
X47938Y49082D01*
X47931Y49051D01*
X47936Y48941D01*
X47935Y48832D01*
X47943Y48801D01*
X47945Y48769D01*
X47981Y48666D01*
X48010Y48560D01*
X48027Y48533D01*
X48037Y48502D01*
X48091Y48429D01*
X48158Y48320D01*
X48194Y48288D01*
X48219Y48253D01*
X49093Y47380D01*
X49810Y46306D01*
X50305Y45113D01*
X50387Y44699D01*
X44500Y44699D01*
X44437Y44690D01*
X44372Y44691D01*
X44298Y44670D01*
X44221Y44659D01*
X44163Y44633D01*
X44101Y44616D01*
X44035Y44575D01*
X43997Y44558D01*
X43989Y44562D01*
X43924Y44605D01*
X43862Y44624D01*
X43804Y44652D01*
X43735Y44663D01*
X43654Y44687D01*
X43569Y44688D01*
X43500Y44699D01*
X37613Y44699D01*
X37695Y45113D01*
X38190Y46306D01*
X38907Y47380D01*
X39781Y48253D01*
X39800Y48279D01*
X39825Y48300D01*
X39885Y48392D01*
X39950Y48479D01*
X39961Y48509D01*
X39979Y48536D01*
X40011Y48641D01*
X40050Y48743D01*
X40052Y48775D01*
X40062Y48806D01*
X40063Y48915D01*
X40071Y49024D01*
X40065Y49056D01*
X40065Y49088D01*
X40036Y49193D01*
X40014Y49300D01*
X39999Y49329D01*
X39990Y49360D01*
X39933Y49453D01*
X39881Y49549D01*
X39859Y49572D01*
X39842Y49600D01*
X39761Y49673D01*
X39685Y49751D01*
X39657Y49767D01*
X39633Y49789D01*
X39535Y49836D01*
X39439Y49890D01*
X39408Y49898D01*
X39379Y49912D01*
X39289Y49926D01*
X39165Y49955D01*
X39116Y49953D01*
X39074Y49959D01*
X-24000Y49959D01*
X-24064Y49950D01*
X-24128Y49951D01*
X-24203Y49930D01*
X-24279Y49919D01*
X-24338Y49893D01*
X-24400Y49876D01*
X-24466Y49835D01*
X-24536Y49803D01*
X-24585Y49761D01*
X-24640Y49728D01*
X-24692Y49670D01*
X-24750Y49620D01*
X-24786Y49566D01*
X-24829Y49518D01*
X-24862Y49449D01*
X-24905Y49384D01*
X-24924Y49322D01*
X-24952Y49265D01*
X-24963Y49195D01*
X-24987Y49114D01*
X-24988Y49029D01*
X-24999Y48960D01*
X-24999Y46000D01*
X-24986Y45905D01*
X-24981Y45809D01*
X-24966Y45766D01*
X-24959Y45721D01*
X-24920Y45633D01*
X-24888Y45542D01*
X-24863Y45508D01*
X-24843Y45464D01*
X-24760Y45367D01*
X-24758Y45363D01*
X-24736Y45329D01*
X-24725Y45319D01*
X-24707Y45293D01*
X-13331Y33917D01*
X-13305Y33898D01*
X-13284Y33874D01*
X-13192Y33814D01*
X-13105Y33748D01*
X-13075Y33737D01*
X-13048Y33719D01*
X-12943Y33687D01*
X-12841Y33649D01*
X-12809Y33646D01*
X-12778Y33637D01*
X-12669Y33635D01*
X-12560Y33627D01*
X-12528Y33633D01*
X-12496Y33633D01*
X-12391Y33662D01*
X-12284Y33684D01*
X-12255Y33700D01*
X-12224Y33708D01*
X-12131Y33766D01*
X-12035Y33817D01*
X-12012Y33839D01*
X-11984Y33856D01*
X-11911Y33937D01*
X-11833Y34014D01*
X-11817Y34042D01*
X-11795Y34066D01*
X-11748Y34164D01*
X-11694Y34259D01*
X-11686Y34290D01*
X-11672Y34319D01*
X-11658Y34409D01*
X-11629Y34533D01*
X-11631Y34582D01*
X-11625Y34624D01*
X-11625Y36960D01*
X-9560Y39025D01*
X-6640Y39025D01*
X-4575Y36960D01*
X-4575Y34040D01*
X-6640Y31975D01*
X-8976Y31975D01*
X-9008Y31971D01*
X-9040Y31973D01*
X-9147Y31951D01*
X-9255Y31935D01*
X-9285Y31922D01*
X-9316Y31916D01*
X-9413Y31864D01*
X-9512Y31819D01*
X-9537Y31798D01*
X-9565Y31783D01*
X-9644Y31707D01*
X-9726Y31636D01*
X-9744Y31609D01*
X-9767Y31586D01*
X-9821Y31491D01*
X-9881Y31400D01*
X-9890Y31369D01*
X-9906Y31341D01*
X-9931Y31234D01*
X-9963Y31130D01*
X-9964Y31098D01*
X-9971Y31067D01*
X-9966Y30957D01*
X-9967Y30848D01*
X-9958Y30817D01*
X-9957Y30785D01*
X-9921Y30682D01*
X-9892Y30576D01*
X-9875Y30549D01*
X-9864Y30518D01*
X-9811Y30445D01*
X-9744Y30336D01*
X-9708Y30304D01*
X-9683Y30269D01*
X-7413Y28000D01*
X-14000Y21413D01*
X-19293Y26707D01*
X-19370Y26764D01*
X-19442Y26829D01*
X-19483Y26849D01*
X-19519Y26876D01*
X-19609Y26910D01*
X-19695Y26952D01*
X-19737Y26958D01*
X-19783Y26975D01*
X-19911Y26985D01*
X-20000Y26999D01*
X-76460Y26999D01*
X-76524Y26990D01*
X-76588Y26991D01*
X-76663Y26970D01*
X-76739Y26959D01*
X-76798Y26933D01*
X-76860Y26916D01*
X-76926Y26875D01*
X-76996Y26843D01*
X-77045Y26801D01*
X-77100Y26768D01*
X-77152Y26710D01*
X-77210Y26660D01*
X-77246Y26606D01*
X-77289Y26558D01*
X-77322Y26489D01*
X-77365Y26424D01*
X-77384Y26362D01*
X-77412Y26305D01*
X-77423Y26235D01*
X-77447Y26154D01*
X-77448Y26069D01*
X-77459Y26000D01*
X-77459Y-48960D01*
X-77450Y-49024D01*
X-77451Y-49088D01*
X-77430Y-49163D01*
X-77419Y-49239D01*
X-77393Y-49298D01*
X-77376Y-49360D01*
X-77335Y-49426D01*
X-77303Y-49496D01*
X-77261Y-49545D01*
X-77228Y-49600D01*
X-77170Y-49652D01*
X-77120Y-49710D01*
X-77066Y-49746D01*
X-77018Y-49789D01*
X-76949Y-49822D01*
X-76884Y-49865D01*
X-76822Y-49884D01*
X-76765Y-49912D01*
X-76695Y-49923D01*
X-76614Y-49947D01*
X-76529Y-49948D01*
X-76460Y-49959D01*
X-36438Y-49959D01*
X-36406Y-49955D01*
G37*
%LPC*%
G36*
X-13829Y-46001D02*
X-13829Y-46001D01*
X-22036Y-37793D01*
X-22113Y-37736D01*
X-22184Y-37671D01*
X-22225Y-37651D01*
X-22262Y-37624D01*
X-22352Y-37590D01*
X-22438Y-37548D01*
X-22480Y-37542D01*
X-22526Y-37525D01*
X-22653Y-37515D01*
X-22743Y-37501D01*
X-57329Y-37501D01*
X-69001Y-25829D01*
X-69001Y-20398D01*
X-69014Y-20303D01*
X-69019Y-20207D01*
X-69034Y-20164D01*
X-69041Y-20119D01*
X-69080Y-20031D01*
X-69112Y-19940D01*
X-69137Y-19906D01*
X-69157Y-19862D01*
X-69240Y-19764D01*
X-69293Y-19691D01*
X-70525Y-18460D01*
X-70525Y-15540D01*
X-68460Y-13475D01*
X-65474Y-13475D01*
X-65442Y-13471D01*
X-65410Y-13473D01*
X-65303Y-13451D01*
X-65194Y-13435D01*
X-65165Y-13422D01*
X-65134Y-13416D01*
X-65037Y-13364D01*
X-64938Y-13319D01*
X-64913Y-13298D01*
X-64885Y-13283D01*
X-64806Y-13207D01*
X-64723Y-13136D01*
X-64706Y-13109D01*
X-64683Y-13086D01*
X-64629Y-12991D01*
X-64569Y-12900D01*
X-64559Y-12869D01*
X-64543Y-12841D01*
X-64518Y-12734D01*
X-64486Y-12630D01*
X-64486Y-12598D01*
X-64479Y-12567D01*
X-64484Y-12457D01*
X-64483Y-12348D01*
X-64491Y-12317D01*
X-64493Y-12285D01*
X-64529Y-12182D01*
X-64558Y-12076D01*
X-64575Y-12049D01*
X-64585Y-12018D01*
X-64639Y-11945D01*
X-64706Y-11836D01*
X-64742Y-11804D01*
X-64767Y-11769D01*
X-72501Y-4036D01*
X-72501Y10202D01*
X-72514Y10297D01*
X-72519Y10393D01*
X-72534Y10436D01*
X-72541Y10481D01*
X-72580Y10569D01*
X-72612Y10660D01*
X-72637Y10694D01*
X-72657Y10738D01*
X-72740Y10836D01*
X-72793Y10909D01*
X-73525Y11640D01*
X-73525Y14560D01*
X-71460Y16625D01*
X-68540Y16625D01*
X-66475Y14560D01*
X-66475Y11640D01*
X-67207Y10909D01*
X-67264Y10832D01*
X-67329Y10760D01*
X-67349Y10720D01*
X-67376Y10683D01*
X-67410Y10593D01*
X-67452Y10507D01*
X-67458Y10465D01*
X-67475Y10419D01*
X-67485Y10292D01*
X-67499Y10202D01*
X-67499Y-1550D01*
X-67486Y-1645D01*
X-67481Y-1741D01*
X-67466Y-1784D01*
X-67459Y-1829D01*
X-67420Y-1917D01*
X-67388Y-2008D01*
X-67363Y-2042D01*
X-67343Y-2086D01*
X-67260Y-2184D01*
X-67207Y-2257D01*
X-53757Y-15707D01*
X-53680Y-15764D01*
X-53609Y-15829D01*
X-53568Y-15849D01*
X-53531Y-15876D01*
X-53441Y-15910D01*
X-53355Y-15952D01*
X-53313Y-15958D01*
X-53267Y-15975D01*
X-53140Y-15985D01*
X-53050Y-15999D01*
X-42064Y-15999D01*
X-38731Y-19333D01*
X-38705Y-19352D01*
X-38684Y-19377D01*
X-38592Y-19437D01*
X-38505Y-19502D01*
X-38475Y-19514D01*
X-38448Y-19531D01*
X-38343Y-19563D01*
X-38241Y-19602D01*
X-38209Y-19604D01*
X-38178Y-19614D01*
X-38069Y-19615D01*
X-37960Y-19623D01*
X-37928Y-19617D01*
X-37896Y-19617D01*
X-37791Y-19588D01*
X-37684Y-19566D01*
X-37655Y-19551D01*
X-37624Y-19542D01*
X-37531Y-19485D01*
X-37435Y-19433D01*
X-37412Y-19411D01*
X-37384Y-19394D01*
X-37311Y-19313D01*
X-37233Y-19237D01*
X-37217Y-19209D01*
X-37195Y-19185D01*
X-37148Y-19086D01*
X-37094Y-18991D01*
X-37086Y-18960D01*
X-37072Y-18931D01*
X-37058Y-18842D01*
X-37029Y-18717D01*
X-37031Y-18668D01*
X-37025Y-18626D01*
X-37025Y-18540D01*
X-34960Y-16475D01*
X-32040Y-16475D01*
X-29975Y-18540D01*
X-29975Y-21460D01*
X-30809Y-22293D01*
X-30822Y-22311D01*
X-30832Y-22320D01*
X-30837Y-22326D01*
X-30853Y-22340D01*
X-30913Y-22432D01*
X-30978Y-22519D01*
X-30989Y-22549D01*
X-31007Y-22576D01*
X-31039Y-22681D01*
X-31078Y-22783D01*
X-31080Y-22815D01*
X-31089Y-22846D01*
X-31091Y-22955D01*
X-31099Y-23064D01*
X-31093Y-23096D01*
X-31093Y-23128D01*
X-31064Y-23233D01*
X-31042Y-23340D01*
X-31027Y-23369D01*
X-31018Y-23400D01*
X-30961Y-23493D01*
X-30909Y-23589D01*
X-30887Y-23612D01*
X-30870Y-23640D01*
X-30789Y-23713D01*
X-30713Y-23791D01*
X-30684Y-23807D01*
X-30661Y-23829D01*
X-30562Y-23876D01*
X-30467Y-23930D01*
X-30436Y-23938D01*
X-30407Y-23952D01*
X-30317Y-23966D01*
X-30193Y-23995D01*
X-30144Y-23993D01*
X-30102Y-23999D01*
X-16964Y-23999D01*
X-15207Y-25757D01*
X-10557Y-30407D01*
X-10480Y-30464D01*
X-10409Y-30529D01*
X-10368Y-30549D01*
X-10331Y-30576D01*
X-10241Y-30610D01*
X-10155Y-30652D01*
X-10113Y-30658D01*
X-10067Y-30675D01*
X-9940Y-30685D01*
X-9850Y-30699D01*
X-3598Y-30699D01*
X-3503Y-30686D01*
X-3407Y-30681D01*
X-3364Y-30666D01*
X-3319Y-30659D01*
X-3231Y-30620D01*
X-3140Y-30588D01*
X-3106Y-30563D01*
X-3062Y-30543D01*
X-2964Y-30460D01*
X-2891Y-30407D01*
X-2160Y-29675D01*
X760Y-29675D01*
X1491Y-30407D01*
X1568Y-30464D01*
X1640Y-30529D01*
X1680Y-30549D01*
X1717Y-30576D01*
X1807Y-30610D01*
X1893Y-30652D01*
X1935Y-30658D01*
X1981Y-30675D01*
X2108Y-30685D01*
X2198Y-30699D01*
X7350Y-30699D01*
X7445Y-30686D01*
X7541Y-30681D01*
X7584Y-30666D01*
X7629Y-30659D01*
X7717Y-30620D01*
X7808Y-30588D01*
X7842Y-30563D01*
X7886Y-30543D01*
X7984Y-30460D01*
X8057Y-30407D01*
X14225Y-24239D01*
X14244Y-24213D01*
X14268Y-24192D01*
X14328Y-24101D01*
X14394Y-24013D01*
X14405Y-23983D01*
X14423Y-23956D01*
X14455Y-23852D01*
X14493Y-23749D01*
X14496Y-23717D01*
X14505Y-23686D01*
X14507Y-23577D01*
X14515Y-23468D01*
X14509Y-23437D01*
X14509Y-23404D01*
X14480Y-23299D01*
X14458Y-23192D01*
X14442Y-23164D01*
X14434Y-23133D01*
X14376Y-23040D01*
X14325Y-22943D01*
X14303Y-22920D01*
X14286Y-22893D01*
X14205Y-22819D01*
X14128Y-22741D01*
X14100Y-22725D01*
X14076Y-22704D01*
X13978Y-22656D01*
X13883Y-22602D01*
X13852Y-22595D01*
X13823Y-22581D01*
X13733Y-22567D01*
X13609Y-22537D01*
X13560Y-22540D01*
X13518Y-22533D01*
X11848Y-22533D01*
X9784Y-20468D01*
X9784Y-17548D01*
X11848Y-15484D01*
X14768Y-15484D01*
X15879Y-16595D01*
X15931Y-16633D01*
X15976Y-16679D01*
X16043Y-16717D01*
X16105Y-16764D01*
X16165Y-16787D01*
X16221Y-16818D01*
X16296Y-16836D01*
X16369Y-16863D01*
X16433Y-16868D01*
X16495Y-16883D01*
X16573Y-16879D01*
X16650Y-16885D01*
X16713Y-16872D01*
X16777Y-16869D01*
X16850Y-16843D01*
X16926Y-16828D01*
X16983Y-16797D01*
X17043Y-16776D01*
X17100Y-16735D01*
X17175Y-16695D01*
X17236Y-16636D01*
X17292Y-16595D01*
X19580Y-14308D01*
X19910Y-14308D01*
X19942Y-14303D01*
X19975Y-14306D01*
X20082Y-14283D01*
X20190Y-14268D01*
X20219Y-14254D01*
X20251Y-14248D01*
X20347Y-14196D01*
X20447Y-14152D01*
X20471Y-14131D01*
X20500Y-14115D01*
X20578Y-14039D01*
X20661Y-13968D01*
X20679Y-13941D01*
X20702Y-13919D01*
X20755Y-13824D01*
X20815Y-13732D01*
X20825Y-13701D01*
X20841Y-13673D01*
X20866Y-13567D01*
X20898Y-13462D01*
X20898Y-13430D01*
X20906Y-13399D01*
X20900Y-13290D01*
X20902Y-13180D01*
X20893Y-13149D01*
X20891Y-13117D01*
X20855Y-13014D01*
X20826Y-12909D01*
X20809Y-12881D01*
X20799Y-12851D01*
X20745Y-12778D01*
X20678Y-12669D01*
X20642Y-12636D01*
X20617Y-12602D01*
X20475Y-12460D01*
X20475Y-9540D01*
X22809Y-7207D01*
X22847Y-7155D01*
X22893Y-7110D01*
X22932Y-7043D01*
X22978Y-6981D01*
X23001Y-6921D01*
X23032Y-6865D01*
X23050Y-6790D01*
X23078Y-6717D01*
X23082Y-6653D01*
X23097Y-6591D01*
X23093Y-6513D01*
X23099Y-6436D01*
X23086Y-6373D01*
X23083Y-6309D01*
X23057Y-6236D01*
X23042Y-6160D01*
X23012Y-6103D01*
X22990Y-6042D01*
X22949Y-5986D01*
X22909Y-5911D01*
X22850Y-5850D01*
X22809Y-5793D01*
X20975Y-3960D01*
X20975Y-1040D01*
X22809Y793D01*
X22847Y845D01*
X22893Y890D01*
X22932Y957D01*
X22978Y1019D01*
X23001Y1079D01*
X23032Y1135D01*
X23050Y1211D01*
X23078Y1283D01*
X23082Y1347D01*
X23097Y1409D01*
X23093Y1487D01*
X23099Y1564D01*
X23086Y1627D01*
X23083Y1691D01*
X23057Y1765D01*
X23042Y1840D01*
X23012Y1897D01*
X22990Y1958D01*
X22949Y2014D01*
X22909Y2089D01*
X22850Y2150D01*
X22809Y2207D01*
X22329Y2686D01*
X22278Y2725D01*
X22233Y2771D01*
X22165Y2809D01*
X22103Y2856D01*
X22043Y2878D01*
X21987Y2910D01*
X21912Y2928D01*
X21840Y2955D01*
X21776Y2960D01*
X21713Y2975D01*
X21635Y2971D01*
X21558Y2977D01*
X21496Y2964D01*
X21431Y2961D01*
X21358Y2935D01*
X21282Y2919D01*
X21226Y2889D01*
X21165Y2868D01*
X21108Y2827D01*
X21033Y2787D01*
X20972Y2728D01*
X20916Y2686D01*
X8429Y-9801D01*
X-39402Y-9801D01*
X-39497Y-9814D01*
X-39593Y-9819D01*
X-39636Y-9834D01*
X-39681Y-9841D01*
X-39769Y-9880D01*
X-39860Y-9912D01*
X-39894Y-9937D01*
X-39938Y-9957D01*
X-40036Y-10040D01*
X-40109Y-10093D01*
X-42040Y-12025D01*
X-44960Y-12025D01*
X-47025Y-9960D01*
X-47025Y-7040D01*
X-44960Y-4975D01*
X-42040Y-4975D01*
X-41509Y-5507D01*
X-41432Y-5564D01*
X-41360Y-5629D01*
X-41320Y-5649D01*
X-41283Y-5676D01*
X-41193Y-5710D01*
X-41107Y-5752D01*
X-41065Y-5758D01*
X-41019Y-5775D01*
X-40892Y-5785D01*
X-40802Y-5799D01*
X-32943Y-5799D01*
X-32911Y-5795D01*
X-32879Y-5797D01*
X-32772Y-5775D01*
X-32663Y-5759D01*
X-32634Y-5746D01*
X-32602Y-5740D01*
X-32506Y-5688D01*
X-32406Y-5643D01*
X-32382Y-5622D01*
X-32353Y-5607D01*
X-32275Y-5531D01*
X-32192Y-5460D01*
X-32174Y-5433D01*
X-32151Y-5410D01*
X-32098Y-5315D01*
X-32038Y-5224D01*
X-32028Y-5193D01*
X-32012Y-5165D01*
X-31987Y-5059D01*
X-31955Y-4954D01*
X-31955Y-4922D01*
X-31947Y-4891D01*
X-31953Y-4781D01*
X-31952Y-4672D01*
X-31960Y-4641D01*
X-31962Y-4609D01*
X-31998Y-4506D01*
X-32027Y-4400D01*
X-32044Y-4373D01*
X-32054Y-4342D01*
X-32108Y-4269D01*
X-32175Y-4160D01*
X-32211Y-4128D01*
X-32236Y-4093D01*
X-38501Y2171D01*
X-38501Y14102D01*
X-38514Y14197D01*
X-38519Y14293D01*
X-38534Y14336D01*
X-38541Y14381D01*
X-38580Y14469D01*
X-38612Y14560D01*
X-38637Y14594D01*
X-38657Y14638D01*
X-38740Y14736D01*
X-38793Y14809D01*
X-40025Y16040D01*
X-40025Y18960D01*
X-37960Y21025D01*
X-35040Y21025D01*
X-32975Y18960D01*
X-32975Y16040D01*
X-34207Y14809D01*
X-34264Y14732D01*
X-34329Y14660D01*
X-34349Y14620D01*
X-34376Y14583D01*
X-34410Y14493D01*
X-34452Y14407D01*
X-34458Y14365D01*
X-34475Y14319D01*
X-34485Y14192D01*
X-34499Y14102D01*
X-34499Y4243D01*
X-34486Y4148D01*
X-34481Y4051D01*
X-34466Y4008D01*
X-34459Y3963D01*
X-34420Y3876D01*
X-34388Y3785D01*
X-34363Y3751D01*
X-34343Y3706D01*
X-34260Y3609D01*
X-34207Y3536D01*
X-28426Y-2245D01*
X-28349Y-2302D01*
X-28278Y-2367D01*
X-28237Y-2387D01*
X-28200Y-2414D01*
X-28110Y-2448D01*
X-28024Y-2490D01*
X-27982Y-2496D01*
X-27936Y-2513D01*
X-27809Y-2523D01*
X-27719Y-2537D01*
X4813Y-2537D01*
X4908Y-2524D01*
X5004Y-2519D01*
X5048Y-2504D01*
X5093Y-2497D01*
X5180Y-2458D01*
X5271Y-2426D01*
X5305Y-2401D01*
X5349Y-2381D01*
X5447Y-2298D01*
X5520Y-2245D01*
X20363Y12598D01*
X21827Y14063D01*
X49819Y14063D01*
X49914Y14076D01*
X50011Y14081D01*
X50054Y14096D01*
X50099Y14103D01*
X50186Y14142D01*
X50277Y14174D01*
X50311Y14199D01*
X50356Y14219D01*
X50453Y14302D01*
X50526Y14355D01*
X53707Y17536D01*
X53764Y17613D01*
X53829Y17684D01*
X53849Y17725D01*
X53876Y17762D01*
X53910Y17852D01*
X53952Y17938D01*
X53958Y17980D01*
X53975Y18026D01*
X53985Y18153D01*
X53999Y18243D01*
X53999Y23298D01*
X53995Y23330D01*
X53997Y23362D01*
X53975Y23469D01*
X53959Y23577D01*
X53946Y23606D01*
X53940Y23638D01*
X53888Y23734D01*
X53843Y23834D01*
X53822Y23858D01*
X53807Y23887D01*
X53731Y23965D01*
X53660Y24048D01*
X53633Y24066D01*
X53610Y24089D01*
X53515Y24143D01*
X53424Y24202D01*
X53393Y24212D01*
X53365Y24228D01*
X53259Y24253D01*
X53154Y24285D01*
X53122Y24285D01*
X53090Y24293D01*
X52981Y24287D01*
X52872Y24289D01*
X52841Y24280D01*
X52809Y24278D01*
X52706Y24243D01*
X52600Y24213D01*
X52573Y24196D01*
X52542Y24186D01*
X52469Y24133D01*
X52360Y24065D01*
X52328Y24029D01*
X52293Y24004D01*
X52280Y23991D01*
X50152Y23109D01*
X47848Y23109D01*
X45720Y23991D01*
X44091Y25620D01*
X43209Y27748D01*
X43209Y30052D01*
X44091Y32180D01*
X45720Y33809D01*
X47848Y34691D01*
X50152Y34691D01*
X51094Y34301D01*
X51209Y34271D01*
X51322Y34237D01*
X51345Y34236D01*
X51367Y34231D01*
X51485Y34234D01*
X51604Y34233D01*
X51626Y34239D01*
X51649Y34240D01*
X51761Y34276D01*
X51876Y34308D01*
X51895Y34320D01*
X51917Y34327D01*
X52015Y34394D01*
X52116Y34456D01*
X52131Y34473D01*
X52150Y34486D01*
X52225Y34578D01*
X52305Y34665D01*
X52315Y34686D01*
X52329Y34704D01*
X52376Y34813D01*
X52428Y34919D01*
X52431Y34941D01*
X52441Y34963D01*
X52463Y35147D01*
X52475Y35224D01*
X52475Y36560D01*
X54540Y38625D01*
X57460Y38625D01*
X59525Y36560D01*
X59525Y33640D01*
X58293Y32409D01*
X58236Y32332D01*
X58171Y32260D01*
X58151Y32220D01*
X58124Y32183D01*
X58090Y32093D01*
X58048Y32007D01*
X58042Y31965D01*
X58025Y31919D01*
X58015Y31792D01*
X58001Y31702D01*
X58001Y16171D01*
X51891Y10061D01*
X46467Y10061D01*
X46435Y10057D01*
X46403Y10059D01*
X46296Y10037D01*
X46187Y10021D01*
X46158Y10008D01*
X46126Y10002D01*
X46030Y9950D01*
X45930Y9905D01*
X45906Y9884D01*
X45877Y9869D01*
X45799Y9793D01*
X45716Y9722D01*
X45698Y9695D01*
X45675Y9672D01*
X45622Y9577D01*
X45562Y9486D01*
X45552Y9455D01*
X45536Y9427D01*
X45511Y9321D01*
X45479Y9216D01*
X45479Y9184D01*
X45471Y9153D01*
X45477Y9043D01*
X45476Y8934D01*
X45484Y8903D01*
X45486Y8871D01*
X45522Y8768D01*
X45551Y8662D01*
X45568Y8635D01*
X45578Y8604D01*
X45632Y8531D01*
X45699Y8422D01*
X45735Y8390D01*
X45760Y8355D01*
X48398Y5717D01*
X48475Y5660D01*
X48546Y5595D01*
X48587Y5575D01*
X48624Y5548D01*
X48714Y5514D01*
X48800Y5472D01*
X48842Y5466D01*
X48888Y5449D01*
X49015Y5439D01*
X49105Y5425D01*
X50846Y5425D01*
X52911Y3360D01*
X52911Y2624D01*
X52920Y2560D01*
X52919Y2496D01*
X52940Y2421D01*
X52951Y2345D01*
X52977Y2286D01*
X52994Y2224D01*
X53035Y2158D01*
X53067Y2088D01*
X53109Y2039D01*
X53142Y1984D01*
X53200Y1932D01*
X53250Y1874D01*
X53304Y1838D01*
X53352Y1795D01*
X53421Y1762D01*
X53486Y1719D01*
X53548Y1700D01*
X53605Y1672D01*
X53675Y1661D01*
X53756Y1637D01*
X53841Y1636D01*
X53910Y1625D01*
X55874Y1625D01*
X57939Y-440D01*
X57939Y-3360D01*
X55874Y-5425D01*
X52954Y-5425D01*
X50889Y-3360D01*
X50889Y-2624D01*
X50880Y-2560D01*
X50881Y-2496D01*
X50860Y-2421D01*
X50849Y-2345D01*
X50823Y-2286D01*
X50806Y-2224D01*
X50765Y-2158D01*
X50733Y-2088D01*
X50691Y-2039D01*
X50658Y-1984D01*
X50600Y-1932D01*
X50550Y-1874D01*
X50496Y-1838D01*
X50448Y-1795D01*
X50379Y-1762D01*
X50314Y-1719D01*
X50252Y-1700D01*
X50195Y-1672D01*
X50125Y-1661D01*
X50044Y-1637D01*
X49959Y-1636D01*
X49890Y-1625D01*
X47926Y-1625D01*
X45861Y440D01*
X45861Y2181D01*
X45848Y2276D01*
X45843Y2373D01*
X45828Y2416D01*
X45821Y2461D01*
X45782Y2548D01*
X45750Y2639D01*
X45725Y2673D01*
X45705Y2718D01*
X45622Y2815D01*
X45569Y2888D01*
X41950Y6507D01*
X41873Y6564D01*
X41802Y6629D01*
X41761Y6649D01*
X41724Y6676D01*
X41634Y6710D01*
X41548Y6752D01*
X41506Y6758D01*
X41460Y6775D01*
X41333Y6785D01*
X41243Y6799D01*
X30524Y6799D01*
X30460Y6790D01*
X30396Y6791D01*
X30321Y6770D01*
X30245Y6759D01*
X30186Y6733D01*
X30124Y6716D01*
X30058Y6675D01*
X29988Y6643D01*
X29939Y6601D01*
X29884Y6568D01*
X29832Y6510D01*
X29774Y6460D01*
X29738Y6406D01*
X29695Y6358D01*
X29662Y6289D01*
X29619Y6224D01*
X29600Y6162D01*
X29572Y6105D01*
X29561Y6035D01*
X29537Y5954D01*
X29536Y5869D01*
X29525Y5800D01*
X29525Y2540D01*
X27691Y707D01*
X27673Y682D01*
X27651Y663D01*
X27633Y636D01*
X27607Y610D01*
X27568Y543D01*
X27522Y481D01*
X27509Y447D01*
X27496Y427D01*
X27488Y402D01*
X27468Y365D01*
X27450Y290D01*
X27422Y217D01*
X27419Y175D01*
X27414Y157D01*
X27414Y136D01*
X27403Y91D01*
X27407Y13D01*
X27401Y-64D01*
X27410Y-110D01*
X27410Y-125D01*
X27414Y-141D01*
X27417Y-191D01*
X27442Y-264D01*
X27458Y-340D01*
X27482Y-385D01*
X27485Y-396D01*
X27492Y-408D01*
X27510Y-458D01*
X27551Y-514D01*
X27591Y-589D01*
X27628Y-627D01*
X27633Y-636D01*
X27653Y-654D01*
X27691Y-707D01*
X28025Y-1040D01*
X28025Y-3960D01*
X25691Y-6293D01*
X25675Y-6316D01*
X25656Y-6332D01*
X25638Y-6359D01*
X25607Y-6390D01*
X25568Y-6457D01*
X25522Y-6519D01*
X25507Y-6560D01*
X25501Y-6568D01*
X25496Y-6584D01*
X25468Y-6635D01*
X25450Y-6710D01*
X25422Y-6783D01*
X25418Y-6847D01*
X25403Y-6910D01*
X25407Y-6987D01*
X25401Y-7064D01*
X25414Y-7127D01*
X25417Y-7191D01*
X25442Y-7264D01*
X25458Y-7340D01*
X25488Y-7397D01*
X25510Y-7458D01*
X25551Y-7514D01*
X25591Y-7589D01*
X25650Y-7650D01*
X25691Y-7707D01*
X27525Y-9540D01*
X27525Y-12460D01*
X27383Y-12602D01*
X27364Y-12628D01*
X27339Y-12649D01*
X27279Y-12740D01*
X27214Y-12827D01*
X27202Y-12857D01*
X27185Y-12884D01*
X27153Y-12989D01*
X27114Y-13091D01*
X27112Y-13123D01*
X27102Y-13154D01*
X27101Y-13263D01*
X27092Y-13372D01*
X27099Y-13404D01*
X27098Y-13436D01*
X27128Y-13542D01*
X27150Y-13648D01*
X27165Y-13677D01*
X27174Y-13708D01*
X27231Y-13801D01*
X27282Y-13897D01*
X27305Y-13920D01*
X27322Y-13948D01*
X27403Y-14021D01*
X27479Y-14099D01*
X27507Y-14115D01*
X27531Y-14137D01*
X27630Y-14185D01*
X27725Y-14239D01*
X27756Y-14246D01*
X27785Y-14260D01*
X27874Y-14274D01*
X27999Y-14303D01*
X28047Y-14301D01*
X28090Y-14308D01*
X60449Y-14308D01*
X60544Y-14294D01*
X60640Y-14289D01*
X60683Y-14274D01*
X60728Y-14268D01*
X60816Y-14228D01*
X60907Y-14197D01*
X60941Y-14172D01*
X60985Y-14152D01*
X61083Y-14068D01*
X61156Y-14015D01*
X64183Y-10988D01*
X64240Y-10911D01*
X64305Y-10840D01*
X64325Y-10799D01*
X64352Y-10762D01*
X64386Y-10672D01*
X64428Y-10586D01*
X64434Y-10544D01*
X64451Y-10499D01*
X64461Y-10371D01*
X64475Y-10281D01*
X64475Y-8540D01*
X66540Y-6475D01*
X69460Y-6475D01*
X71525Y-8540D01*
X71525Y-11460D01*
X69460Y-13525D01*
X67719Y-13525D01*
X67624Y-13538D01*
X67527Y-13543D01*
X67484Y-13558D01*
X67439Y-13565D01*
X67352Y-13604D01*
X67261Y-13636D01*
X67227Y-13661D01*
X67182Y-13681D01*
X67085Y-13764D01*
X67012Y-13817D01*
X64836Y-15993D01*
X64817Y-16019D01*
X64792Y-16040D01*
X64732Y-16132D01*
X64667Y-16219D01*
X64655Y-16249D01*
X64638Y-16276D01*
X64606Y-16381D01*
X64567Y-16483D01*
X64565Y-16515D01*
X64555Y-16546D01*
X64554Y-16655D01*
X64545Y-16764D01*
X64552Y-16796D01*
X64552Y-16828D01*
X64581Y-16933D01*
X64603Y-17040D01*
X64618Y-17069D01*
X64627Y-17100D01*
X64684Y-17193D01*
X64735Y-17289D01*
X64758Y-17312D01*
X64775Y-17340D01*
X64856Y-17413D01*
X64932Y-17491D01*
X64960Y-17507D01*
X64984Y-17529D01*
X65082Y-17576D01*
X65178Y-17630D01*
X65209Y-17638D01*
X65238Y-17652D01*
X65327Y-17666D01*
X65452Y-17695D01*
X65501Y-17693D01*
X65543Y-17699D01*
X82902Y-17699D01*
X82997Y-17686D01*
X83093Y-17681D01*
X83136Y-17666D01*
X83181Y-17659D01*
X83269Y-17620D01*
X83360Y-17588D01*
X83394Y-17563D01*
X83438Y-17543D01*
X83536Y-17460D01*
X83609Y-17407D01*
X84340Y-16675D01*
X87260Y-16675D01*
X89325Y-18740D01*
X89325Y-21660D01*
X87260Y-23725D01*
X84340Y-23725D01*
X83609Y-22993D01*
X83532Y-22936D01*
X83460Y-22871D01*
X83420Y-22851D01*
X83383Y-22824D01*
X83293Y-22790D01*
X83207Y-22748D01*
X83165Y-22742D01*
X83119Y-22725D01*
X82992Y-22715D01*
X82902Y-22701D01*
X53402Y-22701D01*
X53371Y-22705D01*
X53338Y-22703D01*
X53231Y-22725D01*
X53123Y-22741D01*
X53094Y-22754D01*
X53062Y-22760D01*
X52966Y-22812D01*
X52866Y-22857D01*
X52842Y-22878D01*
X52813Y-22893D01*
X52735Y-22969D01*
X52652Y-23040D01*
X52634Y-23067D01*
X52611Y-23090D01*
X52557Y-23185D01*
X52498Y-23276D01*
X52488Y-23307D01*
X52472Y-23335D01*
X52447Y-23441D01*
X52415Y-23546D01*
X52415Y-23578D01*
X52407Y-23609D01*
X52413Y-23719D01*
X52411Y-23828D01*
X52420Y-23859D01*
X52422Y-23891D01*
X52457Y-23994D01*
X52487Y-24100D01*
X52504Y-24127D01*
X52514Y-24158D01*
X52567Y-24231D01*
X52635Y-24340D01*
X52671Y-24372D01*
X52696Y-24407D01*
X53909Y-25620D01*
X54791Y-27748D01*
X54791Y-30052D01*
X53909Y-32180D01*
X52280Y-33809D01*
X50152Y-34691D01*
X47848Y-34691D01*
X45720Y-33809D01*
X44091Y-32180D01*
X43209Y-30052D01*
X43209Y-27748D01*
X44091Y-25620D01*
X45304Y-24407D01*
X45323Y-24381D01*
X45348Y-24360D01*
X45408Y-24268D01*
X45473Y-24181D01*
X45485Y-24151D01*
X45502Y-24124D01*
X45534Y-24019D01*
X45573Y-23917D01*
X45575Y-23885D01*
X45585Y-23854D01*
X45586Y-23745D01*
X45595Y-23636D01*
X45588Y-23604D01*
X45589Y-23572D01*
X45559Y-23467D01*
X45537Y-23360D01*
X45522Y-23331D01*
X45513Y-23300D01*
X45456Y-23207D01*
X45405Y-23111D01*
X45382Y-23088D01*
X45365Y-23060D01*
X45284Y-22987D01*
X45208Y-22909D01*
X45180Y-22893D01*
X45156Y-22871D01*
X45058Y-22824D01*
X44963Y-22770D01*
X44931Y-22762D01*
X44902Y-22748D01*
X44813Y-22734D01*
X44688Y-22705D01*
X44640Y-22707D01*
X44598Y-22701D01*
X23250Y-22701D01*
X23155Y-22714D01*
X23059Y-22719D01*
X23016Y-22734D01*
X22971Y-22741D01*
X22883Y-22780D01*
X22792Y-22812D01*
X22758Y-22837D01*
X22714Y-22857D01*
X22616Y-22940D01*
X22543Y-22993D01*
X9836Y-35701D01*
X2198Y-35701D01*
X2103Y-35714D01*
X2007Y-35719D01*
X1964Y-35734D01*
X1919Y-35741D01*
X1831Y-35780D01*
X1740Y-35812D01*
X1706Y-35837D01*
X1662Y-35857D01*
X1564Y-35940D01*
X1491Y-35993D01*
X760Y-36725D01*
X-2160Y-36725D01*
X-2891Y-35993D01*
X-2968Y-35936D01*
X-3040Y-35871D01*
X-3080Y-35851D01*
X-3117Y-35824D01*
X-3207Y-35790D01*
X-3293Y-35748D01*
X-3335Y-35742D01*
X-3381Y-35725D01*
X-3508Y-35715D01*
X-3598Y-35701D01*
X-12336Y-35701D01*
X-18743Y-29293D01*
X-18820Y-29236D01*
X-18891Y-29171D01*
X-18932Y-29151D01*
X-18969Y-29124D01*
X-19059Y-29090D01*
X-19145Y-29048D01*
X-19187Y-29042D01*
X-19233Y-29025D01*
X-19360Y-29015D01*
X-19450Y-29001D01*
X-37102Y-29001D01*
X-37197Y-29014D01*
X-37293Y-29019D01*
X-37336Y-29034D01*
X-37381Y-29041D01*
X-37469Y-29080D01*
X-37560Y-29112D01*
X-37594Y-29137D01*
X-37638Y-29157D01*
X-37736Y-29240D01*
X-37809Y-29293D01*
X-38540Y-30025D01*
X-41460Y-30025D01*
X-43585Y-27900D01*
X-43591Y-27886D01*
X-43608Y-27824D01*
X-43649Y-27758D01*
X-43681Y-27688D01*
X-43723Y-27639D01*
X-43756Y-27584D01*
X-43814Y-27532D01*
X-43864Y-27474D01*
X-43918Y-27438D01*
X-43966Y-27395D01*
X-44035Y-27362D01*
X-44100Y-27319D01*
X-44162Y-27300D01*
X-44219Y-27272D01*
X-44289Y-27261D01*
X-44370Y-27237D01*
X-44455Y-27236D01*
X-44524Y-27225D01*
X-46860Y-27225D01*
X-48925Y-25160D01*
X-48925Y-22000D01*
X-48934Y-21936D01*
X-48933Y-21872D01*
X-48954Y-21797D01*
X-48965Y-21721D01*
X-48991Y-21662D01*
X-49008Y-21600D01*
X-49049Y-21534D01*
X-49081Y-21464D01*
X-49123Y-21415D01*
X-49156Y-21360D01*
X-49214Y-21308D01*
X-49264Y-21250D01*
X-49318Y-21214D01*
X-49366Y-21171D01*
X-49435Y-21138D01*
X-49500Y-21095D01*
X-49562Y-21076D01*
X-49619Y-21048D01*
X-49689Y-21037D01*
X-49770Y-21013D01*
X-49855Y-21012D01*
X-49924Y-21001D01*
X-55536Y-21001D01*
X-57293Y-19243D01*
X-61769Y-14767D01*
X-61795Y-14748D01*
X-61816Y-14723D01*
X-61908Y-14663D01*
X-61995Y-14598D01*
X-62025Y-14586D01*
X-62052Y-14569D01*
X-62157Y-14537D01*
X-62259Y-14498D01*
X-62291Y-14496D01*
X-62322Y-14486D01*
X-62431Y-14485D01*
X-62540Y-14477D01*
X-62572Y-14483D01*
X-62604Y-14483D01*
X-62709Y-14512D01*
X-62816Y-14534D01*
X-62845Y-14549D01*
X-62876Y-14558D01*
X-62969Y-14615D01*
X-63065Y-14667D01*
X-63088Y-14689D01*
X-63116Y-14706D01*
X-63189Y-14787D01*
X-63267Y-14863D01*
X-63283Y-14891D01*
X-63305Y-14915D01*
X-63352Y-15014D01*
X-63406Y-15109D01*
X-63414Y-15140D01*
X-63428Y-15169D01*
X-63442Y-15258D01*
X-63471Y-15383D01*
X-63469Y-15432D01*
X-63475Y-15474D01*
X-63475Y-18460D01*
X-64707Y-19691D01*
X-64764Y-19768D01*
X-64829Y-19840D01*
X-64849Y-19880D01*
X-64876Y-19917D01*
X-64910Y-20007D01*
X-64952Y-20093D01*
X-64958Y-20135D01*
X-64975Y-20181D01*
X-64985Y-20308D01*
X-64999Y-20398D01*
X-64999Y-23757D01*
X-64986Y-23852D01*
X-64981Y-23949D01*
X-64966Y-23992D01*
X-64959Y-24037D01*
X-64920Y-24124D01*
X-64888Y-24215D01*
X-64863Y-24249D01*
X-64843Y-24294D01*
X-64760Y-24391D01*
X-64707Y-24464D01*
X-55964Y-33207D01*
X-55887Y-33264D01*
X-55816Y-33329D01*
X-55775Y-33349D01*
X-55738Y-33376D01*
X-55648Y-33410D01*
X-55562Y-33452D01*
X-55520Y-33458D01*
X-55474Y-33475D01*
X-55347Y-33485D01*
X-55257Y-33499D01*
X-20671Y-33499D01*
X-12464Y-41707D01*
X-12387Y-41764D01*
X-12316Y-41829D01*
X-12275Y-41849D01*
X-12238Y-41876D01*
X-12148Y-41910D01*
X-12062Y-41952D01*
X-12020Y-41958D01*
X-11974Y-41975D01*
X-11847Y-41985D01*
X-11757Y-41999D01*
X11257Y-41999D01*
X11352Y-41986D01*
X11449Y-41981D01*
X11492Y-41966D01*
X11537Y-41959D01*
X11624Y-41920D01*
X11715Y-41888D01*
X11749Y-41863D01*
X11794Y-41843D01*
X11891Y-41760D01*
X11964Y-41707D01*
X16683Y-36988D01*
X16740Y-36911D01*
X16805Y-36840D01*
X16825Y-36799D01*
X16852Y-36762D01*
X16886Y-36672D01*
X16928Y-36586D01*
X16934Y-36544D01*
X16951Y-36498D01*
X16961Y-36371D01*
X16975Y-36281D01*
X16975Y-34540D01*
X19040Y-32475D01*
X21960Y-32475D01*
X24025Y-34540D01*
X24025Y-37460D01*
X21960Y-39525D01*
X20219Y-39525D01*
X20124Y-39538D01*
X20027Y-39543D01*
X19984Y-39558D01*
X19939Y-39565D01*
X19852Y-39604D01*
X19761Y-39636D01*
X19727Y-39661D01*
X19682Y-39681D01*
X19585Y-39764D01*
X19512Y-39817D01*
X13329Y-46001D01*
X-13829Y-46001D01*
G37*
%LPD*%
%LPC*%
G36*
X88540Y14475D02*
X88540Y14475D01*
X86475Y16540D01*
X86475Y19460D01*
X88540Y21525D01*
X91460Y21525D01*
X93525Y19460D01*
X93525Y16540D01*
X91460Y14475D01*
X88540Y14475D01*
G37*
%LPD*%
%LPC*%
G36*
X74040Y6975D02*
X74040Y6975D01*
X71975Y9040D01*
X71975Y11960D01*
X74040Y14025D01*
X76960Y14025D01*
X79025Y11960D01*
X79025Y9040D01*
X76960Y6975D01*
X74040Y6975D01*
G37*
%LPD*%
%LPC*%
G36*
X-70460Y-37625D02*
X-70460Y-37625D01*
X-72525Y-35560D01*
X-72525Y-32640D01*
X-70460Y-30575D01*
X-67540Y-30575D01*
X-65475Y-32640D01*
X-65475Y-35560D01*
X-67540Y-37625D01*
X-70460Y-37625D01*
G37*
%LPD*%
%LPC*%
G36*
X28540Y34889D02*
X28540Y34889D01*
X26475Y36954D01*
X26475Y39874D01*
X28540Y41939D01*
X31460Y41939D01*
X33525Y39874D01*
X33525Y36954D01*
X31460Y34889D01*
X28540Y34889D01*
G37*
%LPD*%
%LPC*%
G36*
X86999Y41701D02*
X86999Y41701D01*
X91887Y41701D01*
X91805Y41287D01*
X91310Y40094D01*
X90593Y39020D01*
X89680Y38107D01*
X88606Y37390D01*
X87413Y36895D01*
X86999Y36813D01*
X86999Y41701D01*
G37*
%LPD*%
%LPC*%
G36*
X45499Y-41701D02*
X45499Y-41701D01*
X45499Y-36813D01*
X45913Y-36895D01*
X47106Y-37390D01*
X48180Y-38107D01*
X49093Y-39020D01*
X49810Y-40094D01*
X50305Y-41287D01*
X50387Y-41701D01*
X45499Y-41701D01*
G37*
%LPD*%
%LPC*%
G36*
X86999Y-41701D02*
X86999Y-41701D01*
X86999Y-36813D01*
X87413Y-36895D01*
X88606Y-37390D01*
X89680Y-38107D01*
X90593Y-39020D01*
X91310Y-40094D01*
X91805Y-41287D01*
X91887Y-41701D01*
X86999Y-41701D01*
G37*
%LPD*%
%LPC*%
G36*
X45499Y41701D02*
X45499Y41701D01*
X50387Y41701D01*
X50305Y41287D01*
X49810Y40094D01*
X49093Y39020D01*
X48180Y38107D01*
X47106Y37390D01*
X45913Y36895D01*
X45499Y36813D01*
X45499Y41701D01*
G37*
%LPD*%
%LPC*%
G36*
X42087Y36895D02*
X42087Y36895D01*
X40894Y37390D01*
X39820Y38107D01*
X38907Y39020D01*
X38190Y40094D01*
X37695Y41287D01*
X37613Y41701D01*
X42501Y41701D01*
X42501Y36813D01*
X42087Y36895D01*
G37*
%LPD*%
%LPC*%
G36*
X83587Y36895D02*
X83587Y36895D01*
X82394Y37390D01*
X81320Y38107D01*
X80407Y39020D01*
X79690Y40094D01*
X79195Y41287D01*
X79113Y41701D01*
X84001Y41701D01*
X84001Y36813D01*
X83587Y36895D01*
G37*
%LPD*%
%LPC*%
G36*
X37613Y-41701D02*
X37613Y-41701D01*
X37695Y-41287D01*
X38190Y-40094D01*
X38907Y-39020D01*
X39820Y-38107D01*
X40894Y-37390D01*
X42087Y-36895D01*
X42501Y-36813D01*
X42501Y-41701D01*
X37613Y-41701D01*
G37*
%LPD*%
%LPC*%
G36*
X79113Y-41701D02*
X79113Y-41701D01*
X79195Y-41287D01*
X79690Y-40094D01*
X80407Y-39020D01*
X81320Y-38107D01*
X82394Y-37390D01*
X83587Y-36895D01*
X84001Y-36813D01*
X84001Y-41701D01*
X79113Y-41701D01*
G37*
%LPD*%
D10*
X44000Y43200D03*
X44000Y-43200D03*
X85500Y-43200D03*
X85500Y43200D03*
D11*
X-33500Y-20000D03*
X14200Y17100D03*
X-42000Y-42000D03*
X-44000Y27000D03*
X-38000Y27000D03*
X-13800Y37900D03*
X-22500Y47000D03*
X-10000Y0D03*
X-22000Y0D03*
X2000Y0D03*
X-10000Y12000D03*
X-10000Y-13400D03*
X-50000Y27000D03*
X-56000Y27000D03*
X-62000Y27000D03*
X-68000Y27000D03*
X-74000Y27000D03*
X-70000Y20000D03*
X-72500Y-25000D03*
X-72500Y-45000D03*
X-70000Y13100D03*
X85800Y-20200D03*
X-40000Y-26500D03*
D12*
X-70000Y-3000D02*
X-70000Y13100D01*
X-70000Y-3000D02*
X-54500Y-18500D01*
X-43100Y-18500D01*
X-40000Y-21600D02*
X-40000Y-26500D01*
X-40000Y-21600D02*
X-43100Y-18500D01*
D11*
X-700Y-33200D03*
D12*
X-18000Y-26500D02*
X-40000Y-26500D01*
X-11300Y-33200D02*
X-700Y-33200D01*
X-11300Y-33200D02*
X-18000Y-26500D01*
X-700Y-33200D02*
X8800Y-33200D01*
X21800Y-20200D02*
X85800Y-20200D01*
X21800Y-20200D02*
X8800Y-33200D01*
D11*
X-8100Y35500D03*
X-36500Y17500D03*
D13*
X-36500Y3000D01*
X-28962Y-4538D01*
X6056Y-4538D01*
X22656Y12062D01*
X51062Y12062D01*
D11*
X56000Y35100D03*
D13*
X56000Y17000D01*
X51062Y12062D01*
D11*
X20500Y-36000D03*
D13*
X12500Y-44000D01*
X-13000Y-44000D01*
X-21500Y-35500D01*
X-56500Y-35500D01*
X-67000Y-25000D02*
X-67000Y-17000D01*
D11*
X-67000Y-17000D03*
D13*
X-67000Y-25000D02*
X-56500Y-35500D01*
D11*
X-69000Y-34100D03*
X-33000Y-46000D03*
X-43500Y-8500D03*
X49386Y1900D03*
D13*
X7600Y-7800D02*
X-42800Y-7800D01*
X-43500Y-8500D01*
X42486Y8800D02*
X49386Y1900D01*
X24200Y8800D02*
X7600Y-7800D01*
X24200Y8800D02*
X42486Y8800D01*
D11*
X13308Y-19008D03*
D13*
X17708Y-19008D02*
X20408Y-16308D01*
X17708Y-19008D02*
X13308Y-19008D01*
X20408Y-16308D02*
X61692Y-16308D01*
X68000Y-10000D01*
D11*
X68000Y-10000D03*
X24000Y-11000D03*
X54414Y-1900D03*
X26000Y4000D03*
X24500Y-2500D03*
X90000Y18000D03*
X30000Y38414D03*
X75500Y10500D03*
X-45400Y-23700D03*
M02*
