G04 EAGLE Gerber RS-274X export*
G75*
%MOMM*%
%FSLAX34Y34*%
%LPD*%
%INCopper Layer 15*%
%IPPOS*%
%AMOC8*
5,1,8,0,0,1.08239X$1,22.5*%
G01*
%ADD10C,1.108000*%
%ADD11C,0.504800*%
%ADD12C,0.200000*%

G36*
X-36406Y-49955D02*
X-36406Y-49955D01*
X-36374Y-49957D01*
X-36267Y-49935D01*
X-36159Y-49919D01*
X-36129Y-49906D01*
X-36098Y-49900D01*
X-36001Y-49848D01*
X-35902Y-49803D01*
X-35877Y-49782D01*
X-35849Y-49767D01*
X-35770Y-49691D01*
X-35687Y-49620D01*
X-35670Y-49593D01*
X-35647Y-49570D01*
X-35593Y-49475D01*
X-35533Y-49384D01*
X-35523Y-49353D01*
X-35508Y-49325D01*
X-35482Y-49219D01*
X-35451Y-49114D01*
X-35450Y-49082D01*
X-35443Y-49051D01*
X-35448Y-48941D01*
X-35447Y-48832D01*
X-35455Y-48801D01*
X-35457Y-48769D01*
X-35493Y-48666D01*
X-35522Y-48560D01*
X-35539Y-48533D01*
X-35550Y-48502D01*
X-35603Y-48429D01*
X-35670Y-48320D01*
X-35706Y-48288D01*
X-35731Y-48253D01*
X-36525Y-47460D01*
X-36525Y-44540D01*
X-34460Y-42475D01*
X-31540Y-42475D01*
X-29475Y-44540D01*
X-29475Y-47460D01*
X-30269Y-48253D01*
X-30288Y-48279D01*
X-30313Y-48300D01*
X-30373Y-48392D01*
X-30438Y-48479D01*
X-30449Y-48509D01*
X-30467Y-48536D01*
X-30499Y-48641D01*
X-30538Y-48743D01*
X-30540Y-48775D01*
X-30549Y-48806D01*
X-30551Y-48915D01*
X-30559Y-49024D01*
X-30553Y-49056D01*
X-30553Y-49088D01*
X-30524Y-49193D01*
X-30502Y-49300D01*
X-30487Y-49329D01*
X-30478Y-49360D01*
X-30421Y-49453D01*
X-30369Y-49549D01*
X-30347Y-49572D01*
X-30330Y-49600D01*
X-30249Y-49673D01*
X-30173Y-49751D01*
X-30144Y-49767D01*
X-30121Y-49789D01*
X-30022Y-49836D01*
X-29927Y-49890D01*
X-29896Y-49898D01*
X-29867Y-49912D01*
X-29777Y-49926D01*
X-29653Y-49955D01*
X-29604Y-49953D01*
X-29562Y-49959D01*
X39074Y-49959D01*
X39106Y-49955D01*
X39138Y-49957D01*
X39245Y-49935D01*
X39353Y-49919D01*
X39383Y-49906D01*
X39414Y-49900D01*
X39511Y-49848D01*
X39610Y-49803D01*
X39635Y-49782D01*
X39663Y-49767D01*
X39742Y-49691D01*
X39825Y-49620D01*
X39842Y-49593D01*
X39865Y-49570D01*
X39919Y-49475D01*
X39979Y-49384D01*
X39989Y-49353D01*
X40004Y-49325D01*
X40030Y-49219D01*
X40062Y-49114D01*
X40062Y-49082D01*
X40069Y-49051D01*
X40064Y-48941D01*
X40065Y-48832D01*
X40057Y-48801D01*
X40055Y-48769D01*
X40019Y-48666D01*
X39990Y-48560D01*
X39973Y-48533D01*
X39963Y-48502D01*
X39909Y-48429D01*
X39842Y-48320D01*
X39806Y-48288D01*
X39781Y-48253D01*
X38907Y-47380D01*
X38190Y-46306D01*
X37695Y-45113D01*
X37613Y-44699D01*
X43500Y-44699D01*
X43563Y-44690D01*
X43628Y-44691D01*
X43702Y-44670D01*
X43779Y-44659D01*
X43837Y-44633D01*
X43899Y-44616D01*
X43965Y-44575D01*
X44003Y-44558D01*
X44011Y-44562D01*
X44076Y-44605D01*
X44138Y-44624D01*
X44196Y-44652D01*
X44265Y-44663D01*
X44346Y-44687D01*
X44431Y-44688D01*
X44500Y-44699D01*
X50387Y-44699D01*
X50305Y-45113D01*
X49810Y-46306D01*
X49093Y-47380D01*
X48219Y-48253D01*
X48200Y-48279D01*
X48175Y-48300D01*
X48115Y-48392D01*
X48050Y-48479D01*
X48039Y-48509D01*
X48021Y-48536D01*
X47989Y-48641D01*
X47950Y-48743D01*
X47948Y-48775D01*
X47938Y-48806D01*
X47937Y-48915D01*
X47929Y-49024D01*
X47935Y-49056D01*
X47935Y-49088D01*
X47964Y-49193D01*
X47986Y-49300D01*
X48001Y-49329D01*
X48010Y-49360D01*
X48067Y-49453D01*
X48119Y-49549D01*
X48141Y-49572D01*
X48158Y-49600D01*
X48239Y-49673D01*
X48315Y-49751D01*
X48343Y-49767D01*
X48367Y-49789D01*
X48465Y-49836D01*
X48561Y-49890D01*
X48592Y-49898D01*
X48621Y-49912D01*
X48711Y-49926D01*
X48835Y-49955D01*
X48884Y-49953D01*
X48926Y-49959D01*
X80574Y-49959D01*
X80606Y-49955D01*
X80638Y-49957D01*
X80745Y-49935D01*
X80853Y-49919D01*
X80883Y-49906D01*
X80914Y-49900D01*
X81011Y-49848D01*
X81110Y-49803D01*
X81135Y-49782D01*
X81163Y-49767D01*
X81242Y-49691D01*
X81325Y-49620D01*
X81342Y-49593D01*
X81365Y-49570D01*
X81419Y-49475D01*
X81479Y-49384D01*
X81489Y-49353D01*
X81504Y-49325D01*
X81530Y-49219D01*
X81562Y-49114D01*
X81562Y-49082D01*
X81569Y-49051D01*
X81564Y-48941D01*
X81565Y-48832D01*
X81557Y-48801D01*
X81555Y-48769D01*
X81519Y-48666D01*
X81490Y-48560D01*
X81473Y-48533D01*
X81463Y-48502D01*
X81409Y-48429D01*
X81342Y-48320D01*
X81306Y-48288D01*
X81281Y-48253D01*
X80407Y-47380D01*
X79690Y-46306D01*
X79195Y-45113D01*
X79113Y-44699D01*
X85000Y-44699D01*
X85063Y-44690D01*
X85128Y-44691D01*
X85202Y-44670D01*
X85279Y-44659D01*
X85337Y-44633D01*
X85399Y-44616D01*
X85465Y-44575D01*
X85503Y-44558D01*
X85511Y-44562D01*
X85576Y-44605D01*
X85638Y-44624D01*
X85696Y-44652D01*
X85765Y-44663D01*
X85846Y-44687D01*
X85931Y-44688D01*
X86000Y-44699D01*
X91887Y-44699D01*
X91805Y-45113D01*
X91310Y-46306D01*
X90593Y-47380D01*
X89719Y-48253D01*
X89700Y-48279D01*
X89675Y-48300D01*
X89615Y-48392D01*
X89550Y-48479D01*
X89539Y-48509D01*
X89521Y-48536D01*
X89489Y-48641D01*
X89450Y-48743D01*
X89448Y-48775D01*
X89438Y-48806D01*
X89437Y-48915D01*
X89429Y-49024D01*
X89435Y-49056D01*
X89435Y-49088D01*
X89464Y-49193D01*
X89486Y-49300D01*
X89501Y-49329D01*
X89510Y-49360D01*
X89567Y-49453D01*
X89619Y-49549D01*
X89641Y-49572D01*
X89658Y-49600D01*
X89739Y-49673D01*
X89815Y-49751D01*
X89843Y-49767D01*
X89867Y-49789D01*
X89965Y-49836D01*
X90061Y-49890D01*
X90092Y-49898D01*
X90121Y-49912D01*
X90211Y-49926D01*
X90335Y-49955D01*
X90384Y-49953D01*
X90426Y-49959D01*
X96460Y-49959D01*
X96524Y-49950D01*
X96588Y-49951D01*
X96663Y-49930D01*
X96739Y-49919D01*
X96798Y-49893D01*
X96860Y-49876D01*
X96926Y-49835D01*
X96996Y-49803D01*
X97045Y-49761D01*
X97100Y-49728D01*
X97152Y-49670D01*
X97210Y-49620D01*
X97246Y-49566D01*
X97289Y-49518D01*
X97322Y-49449D01*
X97365Y-49384D01*
X97384Y-49322D01*
X97412Y-49265D01*
X97423Y-49195D01*
X97447Y-49114D01*
X97448Y-49029D01*
X97459Y-48960D01*
X97459Y48960D01*
X97450Y49024D01*
X97451Y49088D01*
X97430Y49163D01*
X97419Y49239D01*
X97393Y49298D01*
X97376Y49360D01*
X97335Y49426D01*
X97303Y49496D01*
X97261Y49545D01*
X97228Y49600D01*
X97170Y49652D01*
X97120Y49710D01*
X97066Y49746D01*
X97018Y49789D01*
X96949Y49822D01*
X96884Y49865D01*
X96822Y49884D01*
X96765Y49912D01*
X96695Y49923D01*
X96614Y49947D01*
X96529Y49948D01*
X96460Y49959D01*
X90426Y49959D01*
X90394Y49955D01*
X90362Y49957D01*
X90255Y49935D01*
X90147Y49919D01*
X90117Y49906D01*
X90086Y49900D01*
X89989Y49848D01*
X89890Y49803D01*
X89865Y49782D01*
X89837Y49767D01*
X89758Y49691D01*
X89675Y49620D01*
X89658Y49593D01*
X89635Y49570D01*
X89581Y49475D01*
X89521Y49384D01*
X89511Y49353D01*
X89496Y49325D01*
X89470Y49219D01*
X89438Y49114D01*
X89438Y49082D01*
X89431Y49051D01*
X89436Y48941D01*
X89435Y48832D01*
X89443Y48801D01*
X89445Y48769D01*
X89481Y48666D01*
X89510Y48560D01*
X89527Y48533D01*
X89537Y48502D01*
X89591Y48429D01*
X89658Y48320D01*
X89694Y48288D01*
X89719Y48253D01*
X90593Y47380D01*
X91310Y46306D01*
X91805Y45113D01*
X91887Y44699D01*
X86000Y44699D01*
X85937Y44690D01*
X85872Y44691D01*
X85798Y44670D01*
X85721Y44659D01*
X85663Y44633D01*
X85601Y44616D01*
X85535Y44575D01*
X85497Y44558D01*
X85489Y44562D01*
X85424Y44605D01*
X85362Y44624D01*
X85304Y44652D01*
X85235Y44663D01*
X85154Y44687D01*
X85069Y44688D01*
X85000Y44699D01*
X79113Y44699D01*
X79195Y45113D01*
X79690Y46306D01*
X80407Y47380D01*
X81281Y48253D01*
X81300Y48279D01*
X81325Y48300D01*
X81385Y48392D01*
X81450Y48479D01*
X81461Y48509D01*
X81479Y48536D01*
X81511Y48641D01*
X81550Y48743D01*
X81552Y48775D01*
X81562Y48806D01*
X81563Y48915D01*
X81571Y49024D01*
X81565Y49056D01*
X81565Y49088D01*
X81536Y49193D01*
X81514Y49300D01*
X81499Y49329D01*
X81490Y49360D01*
X81433Y49453D01*
X81381Y49549D01*
X81359Y49572D01*
X81342Y49600D01*
X81261Y49673D01*
X81185Y49751D01*
X81157Y49767D01*
X81133Y49789D01*
X81035Y49836D01*
X80939Y49890D01*
X80908Y49898D01*
X80879Y49912D01*
X80789Y49926D01*
X80665Y49955D01*
X80616Y49953D01*
X80574Y49959D01*
X48926Y49959D01*
X48894Y49955D01*
X48862Y49957D01*
X48755Y49935D01*
X48647Y49919D01*
X48617Y49906D01*
X48586Y49900D01*
X48489Y49848D01*
X48390Y49803D01*
X48365Y49782D01*
X48337Y49767D01*
X48258Y49691D01*
X48175Y49620D01*
X48158Y49593D01*
X48135Y49570D01*
X48081Y49475D01*
X48021Y49384D01*
X48011Y49353D01*
X47996Y49325D01*
X47970Y49219D01*
X47938Y49114D01*
X47938Y49082D01*
X47931Y49051D01*
X47936Y48941D01*
X47935Y48832D01*
X47943Y48801D01*
X47945Y48769D01*
X47981Y48666D01*
X48010Y48560D01*
X48027Y48533D01*
X48037Y48502D01*
X48091Y48429D01*
X48158Y48320D01*
X48194Y48288D01*
X48219Y48253D01*
X49093Y47380D01*
X49810Y46306D01*
X50305Y45113D01*
X50387Y44699D01*
X44500Y44699D01*
X44437Y44690D01*
X44372Y44691D01*
X44298Y44670D01*
X44221Y44659D01*
X44163Y44633D01*
X44101Y44616D01*
X44035Y44575D01*
X43997Y44558D01*
X43989Y44562D01*
X43924Y44605D01*
X43862Y44624D01*
X43804Y44652D01*
X43735Y44663D01*
X43654Y44687D01*
X43569Y44688D01*
X43500Y44699D01*
X37613Y44699D01*
X37695Y45113D01*
X38190Y46306D01*
X38907Y47380D01*
X39781Y48253D01*
X39800Y48279D01*
X39825Y48300D01*
X39885Y48392D01*
X39950Y48479D01*
X39961Y48509D01*
X39979Y48536D01*
X40011Y48641D01*
X40050Y48743D01*
X40052Y48775D01*
X40062Y48806D01*
X40063Y48915D01*
X40071Y49024D01*
X40065Y49056D01*
X40065Y49088D01*
X40036Y49193D01*
X40014Y49300D01*
X39999Y49329D01*
X39990Y49360D01*
X39933Y49453D01*
X39881Y49549D01*
X39859Y49572D01*
X39842Y49600D01*
X39761Y49673D01*
X39685Y49751D01*
X39657Y49767D01*
X39633Y49789D01*
X39535Y49836D01*
X39439Y49890D01*
X39408Y49898D01*
X39379Y49912D01*
X39289Y49926D01*
X39165Y49955D01*
X39116Y49953D01*
X39074Y49959D01*
X-24000Y49959D01*
X-24064Y49950D01*
X-24128Y49951D01*
X-24203Y49930D01*
X-24279Y49919D01*
X-24338Y49893D01*
X-24400Y49876D01*
X-24466Y49835D01*
X-24536Y49803D01*
X-24585Y49761D01*
X-24640Y49728D01*
X-24692Y49670D01*
X-24750Y49620D01*
X-24786Y49566D01*
X-24829Y49518D01*
X-24862Y49449D01*
X-24905Y49384D01*
X-24924Y49322D01*
X-24952Y49265D01*
X-24963Y49195D01*
X-24987Y49114D01*
X-24988Y49029D01*
X-24999Y48960D01*
X-24999Y46000D01*
X-24986Y45905D01*
X-24981Y45809D01*
X-24966Y45766D01*
X-24959Y45721D01*
X-24920Y45633D01*
X-24888Y45542D01*
X-24863Y45508D01*
X-24843Y45464D01*
X-24760Y45367D01*
X-24758Y45363D01*
X-24736Y45329D01*
X-24725Y45319D01*
X-24707Y45293D01*
X-13331Y33917D01*
X-13305Y33898D01*
X-13284Y33874D01*
X-13192Y33814D01*
X-13105Y33748D01*
X-13075Y33737D01*
X-13048Y33719D01*
X-12943Y33687D01*
X-12841Y33649D01*
X-12809Y33646D01*
X-12778Y33637D01*
X-12669Y33635D01*
X-12560Y33627D01*
X-12528Y33633D01*
X-12496Y33633D01*
X-12391Y33662D01*
X-12284Y33684D01*
X-12255Y33700D01*
X-12224Y33708D01*
X-12131Y33766D01*
X-12035Y33817D01*
X-12012Y33839D01*
X-11984Y33856D01*
X-11911Y33937D01*
X-11833Y34014D01*
X-11817Y34042D01*
X-11795Y34066D01*
X-11748Y34164D01*
X-11694Y34259D01*
X-11686Y34290D01*
X-11672Y34319D01*
X-11658Y34409D01*
X-11629Y34533D01*
X-11631Y34582D01*
X-11625Y34624D01*
X-11625Y36960D01*
X-9560Y39025D01*
X-6640Y39025D01*
X-4575Y36960D01*
X-4575Y34040D01*
X-6640Y31975D01*
X-8976Y31975D01*
X-9008Y31971D01*
X-9040Y31973D01*
X-9147Y31951D01*
X-9255Y31935D01*
X-9285Y31922D01*
X-9316Y31916D01*
X-9413Y31864D01*
X-9512Y31819D01*
X-9537Y31798D01*
X-9565Y31783D01*
X-9644Y31707D01*
X-9726Y31636D01*
X-9744Y31609D01*
X-9767Y31586D01*
X-9821Y31491D01*
X-9881Y31400D01*
X-9890Y31369D01*
X-9906Y31341D01*
X-9931Y31234D01*
X-9963Y31130D01*
X-9964Y31098D01*
X-9971Y31067D01*
X-9966Y30957D01*
X-9967Y30848D01*
X-9958Y30817D01*
X-9957Y30785D01*
X-9921Y30682D01*
X-9892Y30576D01*
X-9875Y30549D01*
X-9864Y30518D01*
X-9811Y30445D01*
X-9744Y30336D01*
X-9708Y30304D01*
X-9683Y30269D01*
X-7413Y28000D01*
X-14000Y21413D01*
X-19293Y26707D01*
X-19370Y26764D01*
X-19442Y26829D01*
X-19483Y26849D01*
X-19519Y26876D01*
X-19609Y26910D01*
X-19695Y26952D01*
X-19737Y26958D01*
X-19783Y26975D01*
X-19911Y26985D01*
X-20000Y26999D01*
X-76460Y26999D01*
X-76524Y26990D01*
X-76588Y26991D01*
X-76663Y26970D01*
X-76739Y26959D01*
X-76798Y26933D01*
X-76860Y26916D01*
X-76926Y26875D01*
X-76996Y26843D01*
X-77045Y26801D01*
X-77100Y26768D01*
X-77152Y26710D01*
X-77210Y26660D01*
X-77246Y26606D01*
X-77289Y26558D01*
X-77322Y26489D01*
X-77365Y26424D01*
X-77384Y26362D01*
X-77412Y26305D01*
X-77423Y26235D01*
X-77447Y26154D01*
X-77448Y26069D01*
X-77459Y26000D01*
X-77459Y-48960D01*
X-77450Y-49024D01*
X-77451Y-49088D01*
X-77430Y-49163D01*
X-77419Y-49239D01*
X-77393Y-49298D01*
X-77376Y-49360D01*
X-77335Y-49426D01*
X-77303Y-49496D01*
X-77261Y-49545D01*
X-77228Y-49600D01*
X-77170Y-49652D01*
X-77120Y-49710D01*
X-77066Y-49746D01*
X-77018Y-49789D01*
X-76949Y-49822D01*
X-76884Y-49865D01*
X-76822Y-49884D01*
X-76765Y-49912D01*
X-76695Y-49923D01*
X-76614Y-49947D01*
X-76529Y-49948D01*
X-76460Y-49959D01*
X-36438Y-49959D01*
X-36406Y-49955D01*
G37*
%LPC*%
G36*
X74040Y6975D02*
X74040Y6975D01*
X72809Y8207D01*
X72732Y8264D01*
X72660Y8329D01*
X72620Y8349D01*
X72583Y8376D01*
X72493Y8410D01*
X72407Y8452D01*
X72365Y8458D01*
X72319Y8475D01*
X72192Y8485D01*
X72102Y8499D01*
X38671Y8499D01*
X27999Y19171D01*
X27999Y35016D01*
X27991Y35076D01*
X27991Y35105D01*
X27985Y35127D01*
X27981Y35207D01*
X27966Y35250D01*
X27959Y35295D01*
X27920Y35383D01*
X27888Y35474D01*
X27863Y35508D01*
X27843Y35552D01*
X27760Y35650D01*
X27707Y35723D01*
X26475Y36954D01*
X26475Y39874D01*
X28540Y41939D01*
X31460Y41939D01*
X33525Y39874D01*
X33525Y36954D01*
X32293Y35723D01*
X32236Y35646D01*
X32171Y35574D01*
X32151Y35534D01*
X32124Y35497D01*
X32090Y35407D01*
X32048Y35321D01*
X32042Y35279D01*
X32025Y35233D01*
X32018Y35149D01*
X32013Y35131D01*
X32012Y35089D01*
X32001Y35016D01*
X32001Y21243D01*
X32014Y21148D01*
X32019Y21051D01*
X32034Y21008D01*
X32041Y20963D01*
X32080Y20876D01*
X32112Y20785D01*
X32137Y20751D01*
X32157Y20706D01*
X32240Y20609D01*
X32293Y20536D01*
X40036Y12793D01*
X40113Y12736D01*
X40184Y12671D01*
X40225Y12651D01*
X40262Y12624D01*
X40352Y12590D01*
X40438Y12548D01*
X40480Y12542D01*
X40526Y12525D01*
X40653Y12515D01*
X40743Y12501D01*
X72102Y12501D01*
X72197Y12514D01*
X72293Y12519D01*
X72336Y12534D01*
X72381Y12541D01*
X72469Y12580D01*
X72560Y12612D01*
X72594Y12637D01*
X72638Y12657D01*
X72736Y12740D01*
X72809Y12793D01*
X74040Y14025D01*
X76960Y14025D01*
X79025Y11960D01*
X79025Y9040D01*
X76960Y6975D01*
X74040Y6975D01*
G37*
%LPD*%
%LPC*%
G36*
X47848Y23109D02*
X47848Y23109D01*
X45720Y23991D01*
X44091Y25620D01*
X43209Y27748D01*
X43209Y30052D01*
X44091Y32180D01*
X45720Y33809D01*
X47848Y34691D01*
X50152Y34691D01*
X51094Y34301D01*
X51209Y34271D01*
X51322Y34237D01*
X51345Y34236D01*
X51367Y34231D01*
X51485Y34234D01*
X51604Y34233D01*
X51626Y34239D01*
X51649Y34240D01*
X51761Y34276D01*
X51876Y34308D01*
X51895Y34320D01*
X51917Y34327D01*
X52015Y34394D01*
X52116Y34456D01*
X52131Y34473D01*
X52150Y34486D01*
X52225Y34578D01*
X52305Y34665D01*
X52315Y34686D01*
X52329Y34704D01*
X52376Y34813D01*
X52428Y34919D01*
X52431Y34941D01*
X52441Y34963D01*
X52463Y35147D01*
X52475Y35224D01*
X52475Y36560D01*
X54540Y38625D01*
X57460Y38625D01*
X59525Y36560D01*
X59525Y33640D01*
X57460Y31575D01*
X55655Y31575D01*
X55538Y31559D01*
X55420Y31547D01*
X55399Y31539D01*
X55376Y31535D01*
X55268Y31487D01*
X55158Y31443D01*
X55140Y31429D01*
X55119Y31419D01*
X55029Y31342D01*
X54935Y31269D01*
X54922Y31251D01*
X54905Y31236D01*
X54840Y31137D01*
X54770Y31040D01*
X54763Y31019D01*
X54750Y31000D01*
X54716Y30887D01*
X54676Y30775D01*
X54675Y30752D01*
X54668Y30730D01*
X54666Y30612D01*
X54659Y30493D01*
X54664Y30472D01*
X54664Y30448D01*
X54714Y30268D01*
X54732Y30194D01*
X54791Y30052D01*
X54791Y27748D01*
X53909Y25620D01*
X52280Y23991D01*
X50152Y23109D01*
X47848Y23109D01*
G37*
%LPD*%
%LPC*%
G36*
X22540Y-14525D02*
X22540Y-14525D01*
X20475Y-12460D01*
X20475Y-9540D01*
X22809Y-7207D01*
X22847Y-7155D01*
X22893Y-7110D01*
X22932Y-7043D01*
X22978Y-6981D01*
X23001Y-6921D01*
X23032Y-6865D01*
X23050Y-6790D01*
X23078Y-6717D01*
X23082Y-6653D01*
X23097Y-6591D01*
X23093Y-6513D01*
X23099Y-6436D01*
X23086Y-6373D01*
X23083Y-6309D01*
X23057Y-6236D01*
X23042Y-6160D01*
X23012Y-6103D01*
X22990Y-6042D01*
X22949Y-5986D01*
X22909Y-5911D01*
X22850Y-5850D01*
X22809Y-5793D01*
X20975Y-3960D01*
X20975Y-1040D01*
X22809Y793D01*
X22847Y845D01*
X22893Y890D01*
X22932Y957D01*
X22978Y1019D01*
X23001Y1079D01*
X23032Y1135D01*
X23050Y1210D01*
X23078Y1283D01*
X23082Y1347D01*
X23097Y1410D01*
X23093Y1487D01*
X23099Y1564D01*
X23086Y1627D01*
X23083Y1691D01*
X23058Y1764D01*
X23042Y1840D01*
X23012Y1897D01*
X22990Y1958D01*
X22949Y2014D01*
X22909Y2089D01*
X22850Y2150D01*
X22809Y2207D01*
X22475Y2540D01*
X22475Y5460D01*
X24540Y7525D01*
X27460Y7525D01*
X29525Y5460D01*
X29525Y2540D01*
X27691Y707D01*
X27673Y682D01*
X27651Y663D01*
X27633Y636D01*
X27607Y610D01*
X27568Y543D01*
X27522Y481D01*
X27509Y447D01*
X27496Y427D01*
X27488Y402D01*
X27468Y365D01*
X27450Y290D01*
X27422Y217D01*
X27419Y175D01*
X27414Y157D01*
X27414Y136D01*
X27403Y91D01*
X27407Y13D01*
X27401Y-64D01*
X27410Y-110D01*
X27410Y-125D01*
X27414Y-141D01*
X27417Y-191D01*
X27442Y-264D01*
X27458Y-340D01*
X27482Y-385D01*
X27485Y-396D01*
X27492Y-408D01*
X27510Y-458D01*
X27551Y-514D01*
X27591Y-589D01*
X27628Y-627D01*
X27633Y-636D01*
X27653Y-654D01*
X27691Y-707D01*
X28025Y-1040D01*
X28025Y-3960D01*
X25691Y-6293D01*
X25675Y-6316D01*
X25656Y-6332D01*
X25638Y-6359D01*
X25607Y-6390D01*
X25568Y-6457D01*
X25522Y-6519D01*
X25507Y-6560D01*
X25501Y-6568D01*
X25496Y-6584D01*
X25468Y-6635D01*
X25450Y-6710D01*
X25422Y-6783D01*
X25418Y-6847D01*
X25403Y-6910D01*
X25407Y-6987D01*
X25401Y-7064D01*
X25414Y-7127D01*
X25417Y-7191D01*
X25442Y-7264D01*
X25458Y-7340D01*
X25488Y-7397D01*
X25510Y-7458D01*
X25551Y-7514D01*
X25591Y-7589D01*
X25650Y-7650D01*
X25691Y-7707D01*
X27525Y-9540D01*
X27525Y-12460D01*
X25460Y-14525D01*
X22540Y-14525D01*
G37*
%LPD*%
%LPC*%
G36*
X47848Y-34691D02*
X47848Y-34691D01*
X45720Y-33809D01*
X44091Y-32180D01*
X43209Y-30052D01*
X43209Y-27748D01*
X44091Y-25620D01*
X45720Y-23991D01*
X47848Y-23109D01*
X50152Y-23109D01*
X52280Y-23991D01*
X53909Y-25620D01*
X54791Y-27748D01*
X54791Y-30052D01*
X53909Y-32180D01*
X52280Y-33809D01*
X50152Y-34691D01*
X47848Y-34691D01*
G37*
%LPD*%
%LPC*%
G36*
X52954Y-5425D02*
X52954Y-5425D01*
X50889Y-3360D01*
X50889Y-2624D01*
X50880Y-2560D01*
X50881Y-2496D01*
X50860Y-2421D01*
X50849Y-2345D01*
X50823Y-2286D01*
X50806Y-2224D01*
X50765Y-2158D01*
X50733Y-2088D01*
X50691Y-2039D01*
X50658Y-1984D01*
X50600Y-1932D01*
X50550Y-1874D01*
X50496Y-1838D01*
X50448Y-1795D01*
X50379Y-1762D01*
X50314Y-1719D01*
X50252Y-1700D01*
X50195Y-1672D01*
X50125Y-1661D01*
X50044Y-1637D01*
X49959Y-1636D01*
X49890Y-1625D01*
X47926Y-1625D01*
X45861Y440D01*
X45861Y3360D01*
X47926Y5425D01*
X50846Y5425D01*
X52911Y3360D01*
X52911Y2624D01*
X52920Y2560D01*
X52919Y2496D01*
X52940Y2421D01*
X52951Y2345D01*
X52977Y2286D01*
X52994Y2224D01*
X53035Y2158D01*
X53067Y2088D01*
X53109Y2039D01*
X53142Y1984D01*
X53200Y1932D01*
X53250Y1874D01*
X53304Y1838D01*
X53352Y1795D01*
X53421Y1762D01*
X53486Y1719D01*
X53548Y1700D01*
X53605Y1672D01*
X53675Y1661D01*
X53756Y1637D01*
X53841Y1636D01*
X53910Y1625D01*
X55874Y1625D01*
X57939Y-440D01*
X57939Y-3360D01*
X55874Y-5425D01*
X52954Y-5425D01*
G37*
%LPD*%
%LPC*%
G36*
X-41460Y-30025D02*
X-41460Y-30025D01*
X-43585Y-27900D01*
X-43591Y-27886D01*
X-43608Y-27824D01*
X-43649Y-27758D01*
X-43681Y-27688D01*
X-43723Y-27639D01*
X-43756Y-27584D01*
X-43814Y-27532D01*
X-43864Y-27474D01*
X-43918Y-27438D01*
X-43966Y-27395D01*
X-44035Y-27362D01*
X-44100Y-27319D01*
X-44162Y-27300D01*
X-44219Y-27272D01*
X-44289Y-27261D01*
X-44370Y-27237D01*
X-44455Y-27236D01*
X-44524Y-27225D01*
X-46860Y-27225D01*
X-48925Y-25160D01*
X-48925Y-22240D01*
X-46860Y-20175D01*
X-43940Y-20175D01*
X-41815Y-22300D01*
X-41809Y-22314D01*
X-41792Y-22376D01*
X-41751Y-22442D01*
X-41719Y-22512D01*
X-41677Y-22561D01*
X-41644Y-22616D01*
X-41586Y-22668D01*
X-41536Y-22726D01*
X-41482Y-22762D01*
X-41434Y-22805D01*
X-41365Y-22838D01*
X-41300Y-22881D01*
X-41238Y-22900D01*
X-41181Y-22928D01*
X-41111Y-22939D01*
X-41030Y-22963D01*
X-40945Y-22964D01*
X-40876Y-22975D01*
X-38540Y-22975D01*
X-36475Y-25040D01*
X-36475Y-27960D01*
X-38540Y-30025D01*
X-41460Y-30025D01*
G37*
%LPD*%
%LPC*%
G36*
X88540Y14475D02*
X88540Y14475D01*
X86475Y16540D01*
X86475Y19460D01*
X88540Y21525D01*
X91460Y21525D01*
X93525Y19460D01*
X93525Y16540D01*
X91460Y14475D01*
X88540Y14475D01*
G37*
%LPD*%
%LPC*%
G36*
X-37960Y13975D02*
X-37960Y13975D01*
X-40025Y16040D01*
X-40025Y18960D01*
X-37960Y21025D01*
X-35040Y21025D01*
X-32975Y18960D01*
X-32975Y16040D01*
X-35040Y13975D01*
X-37960Y13975D01*
G37*
%LPD*%
%LPC*%
G36*
X-71460Y9575D02*
X-71460Y9575D01*
X-73525Y11640D01*
X-73525Y14560D01*
X-71460Y16625D01*
X-68540Y16625D01*
X-66475Y14560D01*
X-66475Y11640D01*
X-68540Y9575D01*
X-71460Y9575D01*
G37*
%LPD*%
%LPC*%
G36*
X19040Y-39525D02*
X19040Y-39525D01*
X16975Y-37460D01*
X16975Y-34540D01*
X19040Y-32475D01*
X21960Y-32475D01*
X24025Y-34540D01*
X24025Y-37460D01*
X21960Y-39525D01*
X19040Y-39525D01*
G37*
%LPD*%
%LPC*%
G36*
X-70460Y-37625D02*
X-70460Y-37625D01*
X-72525Y-35560D01*
X-72525Y-32640D01*
X-70460Y-30575D01*
X-67540Y-30575D01*
X-65475Y-32640D01*
X-65475Y-35560D01*
X-67540Y-37625D01*
X-70460Y-37625D01*
G37*
%LPD*%
%LPC*%
G36*
X-44960Y-12025D02*
X-44960Y-12025D01*
X-47025Y-9960D01*
X-47025Y-7040D01*
X-44960Y-4975D01*
X-42040Y-4975D01*
X-39975Y-7040D01*
X-39975Y-9960D01*
X-42040Y-12025D01*
X-44960Y-12025D01*
G37*
%LPD*%
%LPC*%
G36*
X66540Y-13525D02*
X66540Y-13525D01*
X64475Y-11460D01*
X64475Y-8540D01*
X66540Y-6475D01*
X69460Y-6475D01*
X71525Y-8540D01*
X71525Y-11460D01*
X69460Y-13525D01*
X66540Y-13525D01*
G37*
%LPD*%
%LPC*%
G36*
X-68460Y-20525D02*
X-68460Y-20525D01*
X-70525Y-18460D01*
X-70525Y-15540D01*
X-68460Y-13475D01*
X-65540Y-13475D01*
X-63475Y-15540D01*
X-63475Y-18460D01*
X-65540Y-20525D01*
X-68460Y-20525D01*
G37*
%LPD*%
%LPC*%
G36*
X11848Y-22533D02*
X11848Y-22533D01*
X9784Y-20468D01*
X9784Y-17548D01*
X11848Y-15484D01*
X14768Y-15484D01*
X16833Y-17548D01*
X16833Y-20468D01*
X14768Y-22533D01*
X11848Y-22533D01*
G37*
%LPD*%
%LPC*%
G36*
X-34960Y-23525D02*
X-34960Y-23525D01*
X-37025Y-21460D01*
X-37025Y-18540D01*
X-34960Y-16475D01*
X-32040Y-16475D01*
X-29975Y-18540D01*
X-29975Y-21460D01*
X-32040Y-23525D01*
X-34960Y-23525D01*
G37*
%LPD*%
%LPC*%
G36*
X84340Y-23725D02*
X84340Y-23725D01*
X82275Y-21660D01*
X82275Y-18740D01*
X84340Y-16675D01*
X87260Y-16675D01*
X89325Y-18740D01*
X89325Y-21660D01*
X87260Y-23725D01*
X84340Y-23725D01*
G37*
%LPD*%
%LPC*%
G36*
X-2160Y-36725D02*
X-2160Y-36725D01*
X-4225Y-34660D01*
X-4225Y-31740D01*
X-2160Y-29675D01*
X760Y-29675D01*
X2825Y-31740D01*
X2825Y-34660D01*
X760Y-36725D01*
X-2160Y-36725D01*
G37*
%LPD*%
%LPC*%
G36*
X45499Y-41701D02*
X45499Y-41701D01*
X45499Y-36813D01*
X45913Y-36895D01*
X47106Y-37390D01*
X48180Y-38107D01*
X49093Y-39020D01*
X49810Y-40094D01*
X50305Y-41287D01*
X50387Y-41701D01*
X45499Y-41701D01*
G37*
%LPD*%
%LPC*%
G36*
X86999Y41701D02*
X86999Y41701D01*
X91887Y41701D01*
X91805Y41287D01*
X91310Y40094D01*
X90593Y39020D01*
X89680Y38107D01*
X88606Y37390D01*
X87413Y36895D01*
X86999Y36813D01*
X86999Y41701D01*
G37*
%LPD*%
%LPC*%
G36*
X45499Y41701D02*
X45499Y41701D01*
X50387Y41701D01*
X50305Y41287D01*
X49810Y40094D01*
X49093Y39020D01*
X48180Y38107D01*
X47106Y37390D01*
X45913Y36895D01*
X45499Y36813D01*
X45499Y41701D01*
G37*
%LPD*%
%LPC*%
G36*
X86999Y-41701D02*
X86999Y-41701D01*
X86999Y-36813D01*
X87413Y-36895D01*
X88606Y-37390D01*
X89680Y-38107D01*
X90593Y-39020D01*
X91310Y-40094D01*
X91805Y-41287D01*
X91887Y-41701D01*
X86999Y-41701D01*
G37*
%LPD*%
%LPC*%
G36*
X79113Y-41701D02*
X79113Y-41701D01*
X79195Y-41287D01*
X79690Y-40094D01*
X80407Y-39020D01*
X81320Y-38107D01*
X82394Y-37390D01*
X83587Y-36895D01*
X84001Y-36813D01*
X84001Y-41701D01*
X79113Y-41701D01*
G37*
%LPD*%
%LPC*%
G36*
X83587Y36895D02*
X83587Y36895D01*
X82394Y37390D01*
X81320Y38107D01*
X80407Y39020D01*
X79690Y40094D01*
X79195Y41287D01*
X79113Y41701D01*
X84001Y41701D01*
X84001Y36813D01*
X83587Y36895D01*
G37*
%LPD*%
%LPC*%
G36*
X37613Y-41701D02*
X37613Y-41701D01*
X37695Y-41287D01*
X38190Y-40094D01*
X38907Y-39020D01*
X39820Y-38107D01*
X40894Y-37390D01*
X42087Y-36895D01*
X42501Y-36813D01*
X42501Y-41701D01*
X37613Y-41701D01*
G37*
%LPD*%
%LPC*%
G36*
X42087Y36895D02*
X42087Y36895D01*
X40894Y37390D01*
X39820Y38107D01*
X38907Y39020D01*
X38190Y40094D01*
X37695Y41287D01*
X37613Y41701D01*
X42501Y41701D01*
X42501Y36813D01*
X42087Y36895D01*
G37*
%LPD*%
D10*
X44000Y43200D03*
X44000Y-43200D03*
X85500Y-43200D03*
X85500Y43200D03*
D11*
X-33500Y-20000D03*
X14200Y17100D03*
X-42000Y-42000D03*
X-44000Y27000D03*
X-38000Y27000D03*
X-13800Y37900D03*
X-22500Y47000D03*
X-10000Y0D03*
X-22000Y0D03*
X2000Y0D03*
X-10000Y12000D03*
X-10000Y-13400D03*
X-50000Y27000D03*
X-56000Y27000D03*
X-62000Y27000D03*
X-68000Y27000D03*
X-74000Y27000D03*
X-70000Y20000D03*
X-72500Y-25000D03*
X-72500Y-45000D03*
X-70000Y13100D03*
X85800Y-20200D03*
X-40000Y-26500D03*
X-700Y-33200D03*
X-8100Y35500D03*
X-36500Y17500D03*
X56000Y35100D03*
X20500Y-36000D03*
X-67000Y-17000D03*
X-69000Y-34100D03*
X-33000Y-46000D03*
X-43500Y-8500D03*
X49386Y1900D03*
X13308Y-19008D03*
X68000Y-10000D03*
X24000Y-11000D03*
X54414Y-1900D03*
X26000Y4000D03*
X24500Y-2500D03*
X90000Y18000D03*
X30000Y38414D03*
X75500Y10500D03*
D12*
X39500Y10500D01*
X30000Y20000D02*
X30000Y38414D01*
X30000Y20000D02*
X39500Y10500D01*
D11*
X-45400Y-23700D03*
M02*
