G04 EAGLE Gerber RS-274X export*
G75*
%MOMM*%
%FSLAX34Y34*%
%LPD*%
%INSilkscreen Bottom*%
%IPPOS*%
%AMOC8*
5,1,8,0,0,1.08239X$1,22.5*%
G01*
%ADD10C,0.076200*%


D10*
X76509Y-30029D02*
X83875Y-30029D01*
X83875Y-27983D01*
X83873Y-27894D01*
X83867Y-27805D01*
X83857Y-27716D01*
X83844Y-27628D01*
X83827Y-27540D01*
X83805Y-27453D01*
X83780Y-27368D01*
X83752Y-27283D01*
X83719Y-27200D01*
X83683Y-27118D01*
X83644Y-27038D01*
X83601Y-26960D01*
X83555Y-26884D01*
X83505Y-26809D01*
X83452Y-26737D01*
X83396Y-26668D01*
X83337Y-26601D01*
X83276Y-26536D01*
X83211Y-26475D01*
X83144Y-26416D01*
X83075Y-26360D01*
X83003Y-26307D01*
X82928Y-26257D01*
X82852Y-26211D01*
X82774Y-26168D01*
X82694Y-26129D01*
X82612Y-26093D01*
X82529Y-26060D01*
X82444Y-26032D01*
X82359Y-26007D01*
X82272Y-25985D01*
X82184Y-25968D01*
X82096Y-25955D01*
X82007Y-25945D01*
X81918Y-25939D01*
X81829Y-25937D01*
X81740Y-25939D01*
X81651Y-25945D01*
X81562Y-25955D01*
X81474Y-25968D01*
X81386Y-25985D01*
X81299Y-26007D01*
X81214Y-26032D01*
X81129Y-26060D01*
X81046Y-26093D01*
X80964Y-26129D01*
X80884Y-26168D01*
X80806Y-26211D01*
X80730Y-26257D01*
X80655Y-26307D01*
X80583Y-26360D01*
X80514Y-26416D01*
X80447Y-26475D01*
X80382Y-26536D01*
X80321Y-26601D01*
X80262Y-26668D01*
X80206Y-26737D01*
X80153Y-26809D01*
X80103Y-26884D01*
X80057Y-26960D01*
X80014Y-27038D01*
X79975Y-27118D01*
X79939Y-27200D01*
X79906Y-27283D01*
X79878Y-27368D01*
X79853Y-27453D01*
X79831Y-27540D01*
X79814Y-27628D01*
X79801Y-27716D01*
X79791Y-27805D01*
X79785Y-27894D01*
X79783Y-27983D01*
X79783Y-30029D01*
X81420Y-23224D02*
X76509Y-23224D01*
X83466Y-23428D02*
X83875Y-23428D01*
X83875Y-23019D01*
X83466Y-23019D01*
X83466Y-23428D01*
X76509Y-18991D02*
X76509Y-17354D01*
X76509Y-18991D02*
X76511Y-19060D01*
X76517Y-19128D01*
X76526Y-19197D01*
X76540Y-19264D01*
X76557Y-19331D01*
X76578Y-19397D01*
X76602Y-19461D01*
X76631Y-19524D01*
X76662Y-19585D01*
X76697Y-19644D01*
X76735Y-19702D01*
X76777Y-19757D01*
X76821Y-19809D01*
X76869Y-19859D01*
X76919Y-19907D01*
X76971Y-19951D01*
X77026Y-19993D01*
X77084Y-20031D01*
X77143Y-20066D01*
X77204Y-20097D01*
X77267Y-20126D01*
X77331Y-20150D01*
X77397Y-20171D01*
X77464Y-20188D01*
X77531Y-20202D01*
X77600Y-20211D01*
X77668Y-20217D01*
X77737Y-20219D01*
X77737Y-20218D02*
X80192Y-20218D01*
X80192Y-20219D02*
X80261Y-20217D01*
X80329Y-20211D01*
X80398Y-20202D01*
X80465Y-20188D01*
X80532Y-20171D01*
X80598Y-20150D01*
X80662Y-20126D01*
X80725Y-20097D01*
X80786Y-20066D01*
X80845Y-20031D01*
X80903Y-19993D01*
X80958Y-19951D01*
X81010Y-19907D01*
X81060Y-19859D01*
X81108Y-19809D01*
X81152Y-19757D01*
X81194Y-19702D01*
X81232Y-19644D01*
X81267Y-19585D01*
X81298Y-19524D01*
X81327Y-19461D01*
X81351Y-19397D01*
X81372Y-19331D01*
X81389Y-19264D01*
X81403Y-19197D01*
X81412Y-19128D01*
X81418Y-19060D01*
X81420Y-18991D01*
X81420Y-17354D01*
X79783Y-14619D02*
X78146Y-14619D01*
X79783Y-14619D02*
X79862Y-14617D01*
X79941Y-14611D01*
X80020Y-14602D01*
X80098Y-14589D01*
X80175Y-14571D01*
X80251Y-14551D01*
X80326Y-14526D01*
X80400Y-14498D01*
X80473Y-14467D01*
X80544Y-14431D01*
X80613Y-14393D01*
X80680Y-14351D01*
X80745Y-14306D01*
X80808Y-14258D01*
X80869Y-14207D01*
X80926Y-14153D01*
X80982Y-14097D01*
X81034Y-14038D01*
X81084Y-13976D01*
X81130Y-13912D01*
X81174Y-13846D01*
X81214Y-13778D01*
X81250Y-13708D01*
X81284Y-13636D01*
X81314Y-13562D01*
X81340Y-13488D01*
X81363Y-13412D01*
X81381Y-13335D01*
X81397Y-13258D01*
X81408Y-13179D01*
X81416Y-13101D01*
X81420Y-13022D01*
X81420Y-12942D01*
X81416Y-12863D01*
X81408Y-12785D01*
X81397Y-12706D01*
X81381Y-12629D01*
X81363Y-12552D01*
X81340Y-12476D01*
X81314Y-12402D01*
X81284Y-12328D01*
X81250Y-12256D01*
X81214Y-12186D01*
X81174Y-12118D01*
X81130Y-12052D01*
X81084Y-11988D01*
X81034Y-11926D01*
X80982Y-11867D01*
X80926Y-11811D01*
X80869Y-11757D01*
X80808Y-11706D01*
X80745Y-11658D01*
X80680Y-11613D01*
X80613Y-11571D01*
X80544Y-11533D01*
X80473Y-11497D01*
X80400Y-11466D01*
X80326Y-11438D01*
X80251Y-11413D01*
X80175Y-11393D01*
X80098Y-11375D01*
X80020Y-11362D01*
X79941Y-11353D01*
X79862Y-11347D01*
X79783Y-11345D01*
X78146Y-11345D01*
X78067Y-11347D01*
X77988Y-11353D01*
X77909Y-11362D01*
X77831Y-11375D01*
X77754Y-11393D01*
X77678Y-11413D01*
X77603Y-11438D01*
X77529Y-11466D01*
X77456Y-11497D01*
X77385Y-11533D01*
X77316Y-11571D01*
X77249Y-11613D01*
X77184Y-11658D01*
X77121Y-11706D01*
X77060Y-11757D01*
X77003Y-11811D01*
X76947Y-11867D01*
X76895Y-11926D01*
X76845Y-11988D01*
X76799Y-12052D01*
X76755Y-12118D01*
X76715Y-12186D01*
X76679Y-12256D01*
X76645Y-12328D01*
X76615Y-12402D01*
X76589Y-12476D01*
X76566Y-12552D01*
X76548Y-12629D01*
X76532Y-12706D01*
X76521Y-12785D01*
X76513Y-12863D01*
X76509Y-12942D01*
X76509Y-13022D01*
X76513Y-13101D01*
X76521Y-13179D01*
X76532Y-13258D01*
X76548Y-13335D01*
X76566Y-13412D01*
X76589Y-13488D01*
X76615Y-13562D01*
X76645Y-13636D01*
X76679Y-13708D01*
X76715Y-13778D01*
X76755Y-13846D01*
X76799Y-13912D01*
X76845Y-13976D01*
X76895Y-14038D01*
X76947Y-14097D01*
X77003Y-14153D01*
X77060Y-14207D01*
X77121Y-14258D01*
X77184Y-14306D01*
X77249Y-14351D01*
X77316Y-14393D01*
X77385Y-14431D01*
X77456Y-14467D01*
X77529Y-14498D01*
X77603Y-14526D01*
X77678Y-14551D01*
X77754Y-14571D01*
X77831Y-14589D01*
X77909Y-14602D01*
X77988Y-14611D01*
X78067Y-14617D01*
X78146Y-14619D01*
X76509Y-7043D02*
X76509Y-5406D01*
X76509Y-7043D02*
X76511Y-7112D01*
X76517Y-7180D01*
X76526Y-7249D01*
X76540Y-7316D01*
X76557Y-7383D01*
X76578Y-7449D01*
X76602Y-7513D01*
X76631Y-7576D01*
X76662Y-7637D01*
X76697Y-7696D01*
X76735Y-7754D01*
X76777Y-7809D01*
X76821Y-7861D01*
X76869Y-7911D01*
X76919Y-7959D01*
X76971Y-8003D01*
X77026Y-8045D01*
X77084Y-8083D01*
X77143Y-8118D01*
X77204Y-8149D01*
X77267Y-8178D01*
X77331Y-8202D01*
X77397Y-8223D01*
X77464Y-8240D01*
X77531Y-8254D01*
X77600Y-8263D01*
X77668Y-8269D01*
X77737Y-8271D01*
X77737Y-8270D02*
X80192Y-8270D01*
X80192Y-8271D02*
X80261Y-8269D01*
X80329Y-8263D01*
X80398Y-8254D01*
X80465Y-8240D01*
X80532Y-8223D01*
X80598Y-8202D01*
X80662Y-8178D01*
X80725Y-8149D01*
X80786Y-8118D01*
X80845Y-8083D01*
X80903Y-8045D01*
X80958Y-8003D01*
X81010Y-7959D01*
X81060Y-7911D01*
X81108Y-7861D01*
X81152Y-7809D01*
X81194Y-7754D01*
X81232Y-7696D01*
X81267Y-7637D01*
X81298Y-7576D01*
X81327Y-7513D01*
X81351Y-7449D01*
X81372Y-7383D01*
X81389Y-7316D01*
X81403Y-7249D01*
X81412Y-7180D01*
X81418Y-7112D01*
X81420Y-7043D01*
X81420Y-5406D01*
X83875Y-2588D02*
X77737Y-2588D01*
X77668Y-2586D01*
X77600Y-2580D01*
X77531Y-2571D01*
X77464Y-2557D01*
X77397Y-2540D01*
X77331Y-2519D01*
X77267Y-2495D01*
X77204Y-2466D01*
X77143Y-2435D01*
X77084Y-2400D01*
X77026Y-2362D01*
X76971Y-2320D01*
X76919Y-2276D01*
X76869Y-2228D01*
X76821Y-2178D01*
X76777Y-2126D01*
X76736Y-2071D01*
X76697Y-2013D01*
X76662Y-1954D01*
X76631Y-1893D01*
X76602Y-1830D01*
X76578Y-1766D01*
X76557Y-1700D01*
X76540Y-1633D01*
X76526Y-1566D01*
X76517Y-1498D01*
X76511Y-1429D01*
X76509Y-1360D01*
X76509Y1160D02*
X81420Y1160D01*
X83466Y956D02*
X83875Y956D01*
X83875Y1365D01*
X83466Y1365D01*
X83466Y956D01*
X76509Y5393D02*
X76509Y7030D01*
X76509Y5393D02*
X76511Y5324D01*
X76517Y5256D01*
X76526Y5187D01*
X76540Y5120D01*
X76557Y5053D01*
X76578Y4987D01*
X76602Y4923D01*
X76631Y4860D01*
X76662Y4799D01*
X76697Y4740D01*
X76735Y4682D01*
X76777Y4627D01*
X76821Y4575D01*
X76869Y4525D01*
X76919Y4477D01*
X76971Y4433D01*
X77026Y4391D01*
X77084Y4353D01*
X77143Y4318D01*
X77204Y4287D01*
X77267Y4258D01*
X77331Y4234D01*
X77397Y4213D01*
X77464Y4196D01*
X77531Y4182D01*
X77600Y4173D01*
X77668Y4167D01*
X77737Y4165D01*
X77737Y4166D02*
X80192Y4166D01*
X80192Y4165D02*
X80261Y4167D01*
X80329Y4173D01*
X80398Y4182D01*
X80465Y4196D01*
X80532Y4213D01*
X80598Y4234D01*
X80662Y4258D01*
X80725Y4287D01*
X80786Y4318D01*
X80845Y4353D01*
X80903Y4391D01*
X80958Y4433D01*
X81010Y4477D01*
X81060Y4525D01*
X81108Y4575D01*
X81152Y4627D01*
X81194Y4682D01*
X81232Y4740D01*
X81267Y4799D01*
X81298Y4860D01*
X81327Y4923D01*
X81351Y4987D01*
X81372Y5053D01*
X81389Y5120D01*
X81403Y5187D01*
X81412Y5256D01*
X81418Y5324D01*
X81420Y5393D01*
X81420Y7030D01*
X83875Y10103D02*
X76509Y10103D01*
X78964Y10103D02*
X81420Y13376D01*
X79987Y11535D02*
X76509Y13376D01*
X76509Y21399D02*
X81420Y19762D01*
X81420Y23036D02*
X76509Y21399D01*
X76509Y25936D02*
X76509Y27983D01*
X76511Y28072D01*
X76517Y28161D01*
X76527Y28250D01*
X76540Y28338D01*
X76557Y28426D01*
X76579Y28513D01*
X76604Y28598D01*
X76632Y28683D01*
X76665Y28766D01*
X76701Y28848D01*
X76740Y28928D01*
X76783Y29006D01*
X76829Y29082D01*
X76879Y29157D01*
X76932Y29229D01*
X76988Y29298D01*
X77047Y29365D01*
X77108Y29430D01*
X77173Y29491D01*
X77240Y29550D01*
X77309Y29606D01*
X77381Y29659D01*
X77456Y29709D01*
X77532Y29755D01*
X77610Y29798D01*
X77690Y29837D01*
X77772Y29873D01*
X77855Y29906D01*
X77940Y29934D01*
X78025Y29959D01*
X78112Y29981D01*
X78200Y29998D01*
X78288Y30011D01*
X78377Y30021D01*
X78466Y30027D01*
X78555Y30029D01*
X78644Y30027D01*
X78733Y30021D01*
X78822Y30011D01*
X78910Y29998D01*
X78998Y29981D01*
X79085Y29959D01*
X79170Y29934D01*
X79255Y29906D01*
X79338Y29873D01*
X79420Y29837D01*
X79500Y29798D01*
X79578Y29755D01*
X79654Y29709D01*
X79729Y29659D01*
X79801Y29606D01*
X79870Y29550D01*
X79937Y29491D01*
X80002Y29430D01*
X80063Y29365D01*
X80122Y29298D01*
X80178Y29229D01*
X80231Y29157D01*
X80281Y29082D01*
X80327Y29006D01*
X80370Y28928D01*
X80409Y28848D01*
X80445Y28766D01*
X80478Y28683D01*
X80506Y28598D01*
X80531Y28513D01*
X80553Y28426D01*
X80570Y28338D01*
X80583Y28250D01*
X80593Y28161D01*
X80599Y28072D01*
X80601Y27983D01*
X83875Y28392D02*
X83875Y25936D01*
X83875Y28392D02*
X83873Y28471D01*
X83867Y28550D01*
X83858Y28629D01*
X83845Y28707D01*
X83827Y28784D01*
X83807Y28860D01*
X83782Y28935D01*
X83754Y29009D01*
X83723Y29082D01*
X83687Y29153D01*
X83649Y29222D01*
X83607Y29289D01*
X83562Y29354D01*
X83514Y29417D01*
X83463Y29478D01*
X83409Y29535D01*
X83353Y29591D01*
X83294Y29643D01*
X83232Y29693D01*
X83168Y29739D01*
X83102Y29783D01*
X83034Y29823D01*
X82964Y29859D01*
X82892Y29893D01*
X82818Y29923D01*
X82744Y29949D01*
X82668Y29972D01*
X82591Y29990D01*
X82514Y30006D01*
X82435Y30017D01*
X82357Y30025D01*
X82278Y30029D01*
X82198Y30029D01*
X82119Y30025D01*
X82041Y30017D01*
X81962Y30006D01*
X81885Y29990D01*
X81808Y29972D01*
X81732Y29949D01*
X81658Y29923D01*
X81584Y29893D01*
X81512Y29859D01*
X81442Y29823D01*
X81374Y29783D01*
X81308Y29739D01*
X81244Y29693D01*
X81182Y29643D01*
X81123Y29591D01*
X81067Y29535D01*
X81013Y29478D01*
X80962Y29417D01*
X80914Y29354D01*
X80869Y29289D01*
X80827Y29222D01*
X80789Y29153D01*
X80753Y29082D01*
X80722Y29009D01*
X80694Y28935D01*
X80669Y28860D01*
X80649Y28784D01*
X80631Y28707D01*
X80618Y28629D01*
X80609Y28550D01*
X80603Y28471D01*
X80601Y28392D01*
X80601Y26755D01*
X70455Y-37334D02*
X70455Y-38562D01*
X70456Y-38562D02*
X70454Y-38631D01*
X70448Y-38699D01*
X70439Y-38768D01*
X70425Y-38835D01*
X70408Y-38902D01*
X70387Y-38968D01*
X70363Y-39032D01*
X70334Y-39095D01*
X70303Y-39156D01*
X70268Y-39215D01*
X70230Y-39273D01*
X70188Y-39328D01*
X70144Y-39380D01*
X70096Y-39430D01*
X70046Y-39478D01*
X69994Y-39522D01*
X69939Y-39564D01*
X69881Y-39602D01*
X69822Y-39637D01*
X69761Y-39668D01*
X69698Y-39697D01*
X69634Y-39721D01*
X69568Y-39742D01*
X69501Y-39759D01*
X69434Y-39773D01*
X69365Y-39782D01*
X69297Y-39788D01*
X69228Y-39790D01*
X69228Y-39789D02*
X66772Y-39789D01*
X66772Y-39790D02*
X66703Y-39788D01*
X66635Y-39782D01*
X66566Y-39773D01*
X66499Y-39759D01*
X66432Y-39742D01*
X66366Y-39721D01*
X66302Y-39697D01*
X66239Y-39668D01*
X66178Y-39637D01*
X66119Y-39602D01*
X66061Y-39564D01*
X66006Y-39522D01*
X65954Y-39478D01*
X65904Y-39430D01*
X65856Y-39380D01*
X65812Y-39328D01*
X65770Y-39273D01*
X65732Y-39215D01*
X65697Y-39156D01*
X65666Y-39095D01*
X65637Y-39032D01*
X65613Y-38968D01*
X65592Y-38902D01*
X65575Y-38835D01*
X65561Y-38768D01*
X65552Y-38699D01*
X65546Y-38631D01*
X65544Y-38562D01*
X65546Y-38493D01*
X65552Y-38425D01*
X65561Y-38356D01*
X65575Y-38289D01*
X65592Y-38222D01*
X65613Y-38156D01*
X65637Y-38092D01*
X65666Y-38029D01*
X65697Y-37968D01*
X65732Y-37909D01*
X65770Y-37851D01*
X65812Y-37796D01*
X65856Y-37744D01*
X65904Y-37694D01*
X65954Y-37646D01*
X66006Y-37602D01*
X66061Y-37560D01*
X66119Y-37522D01*
X66178Y-37487D01*
X66239Y-37456D01*
X66302Y-37427D01*
X66366Y-37403D01*
X66432Y-37382D01*
X66499Y-37365D01*
X66566Y-37351D01*
X66635Y-37342D01*
X66703Y-37336D01*
X66772Y-37334D01*
X66568Y-37334D02*
X70455Y-37334D01*
X66568Y-37334D02*
X66505Y-37332D01*
X66442Y-37326D01*
X66380Y-37317D01*
X66318Y-37303D01*
X66258Y-37286D01*
X66198Y-37265D01*
X66140Y-37240D01*
X66084Y-37212D01*
X66029Y-37181D01*
X65977Y-37146D01*
X65927Y-37108D01*
X65879Y-37067D01*
X65834Y-37023D01*
X65791Y-36977D01*
X65752Y-36927D01*
X65715Y-36876D01*
X65682Y-36822D01*
X65652Y-36767D01*
X65626Y-36710D01*
X65603Y-36651D01*
X65584Y-36591D01*
X65569Y-36530D01*
X65557Y-36468D01*
X65549Y-36405D01*
X65545Y-36343D01*
X65545Y-36279D01*
X65549Y-36217D01*
X65557Y-36154D01*
X65569Y-36092D01*
X65584Y-36031D01*
X65603Y-35971D01*
X65626Y-35912D01*
X65652Y-35855D01*
X65682Y-35800D01*
X65715Y-35746D01*
X65752Y-35695D01*
X65791Y-35645D01*
X65834Y-35599D01*
X65879Y-35555D01*
X65927Y-35514D01*
X65977Y-35476D01*
X66029Y-35441D01*
X66084Y-35410D01*
X66140Y-35382D01*
X66198Y-35357D01*
X66258Y-35336D01*
X66318Y-35319D01*
X66380Y-35305D01*
X66442Y-35296D01*
X66505Y-35290D01*
X66568Y-35288D01*
X69637Y-35288D01*
X69750Y-35290D01*
X69863Y-35296D01*
X69975Y-35306D01*
X70088Y-35319D01*
X70199Y-35337D01*
X70310Y-35358D01*
X70421Y-35383D01*
X70530Y-35412D01*
X70638Y-35445D01*
X70745Y-35481D01*
X70851Y-35521D01*
X70955Y-35565D01*
X71058Y-35612D01*
X71159Y-35663D01*
X71258Y-35717D01*
X71355Y-35775D01*
X71450Y-35836D01*
X71543Y-35900D01*
X71634Y-35967D01*
X71722Y-36038D01*
X71808Y-36111D01*
X71891Y-36188D01*
X71972Y-36267D01*
X72050Y-36349D01*
X72125Y-36434D01*
X72197Y-36521D01*
X72266Y-36610D01*
X72331Y-36702D01*
X72394Y-36796D01*
X72453Y-36892D01*
X72509Y-36991D01*
X72562Y-37091D01*
X72611Y-37193D01*
X72656Y-37296D01*
X72698Y-37401D01*
X72736Y-37507D01*
X72771Y-37615D01*
X72802Y-37724D01*
X72829Y-37833D01*
X72852Y-37944D01*
X72872Y-38055D01*
X72887Y-38167D01*
X72899Y-38280D01*
X72907Y-38393D01*
X72911Y-38505D01*
X72911Y-38619D01*
X72907Y-38731D01*
X72899Y-38844D01*
X72887Y-38957D01*
X72872Y-39069D01*
X72852Y-39180D01*
X72829Y-39291D01*
X72802Y-39400D01*
X72771Y-39509D01*
X72736Y-39617D01*
X72698Y-39723D01*
X72656Y-39828D01*
X72611Y-39931D01*
X72562Y-40033D01*
X72509Y-40133D01*
X72453Y-40232D01*
X72394Y-40328D01*
X72331Y-40422D01*
X72266Y-40514D01*
X72197Y-40603D01*
X72125Y-40690D01*
X72050Y-40775D01*
X71972Y-40857D01*
X71891Y-40936D01*
X71808Y-41013D01*
X71722Y-41086D01*
X71634Y-41157D01*
X71543Y-41224D01*
X71450Y-41288D01*
X71355Y-41349D01*
X71258Y-41407D01*
X71159Y-41461D01*
X71058Y-41512D01*
X70955Y-41559D01*
X70851Y-41603D01*
X70745Y-41643D01*
X70638Y-41679D01*
X70530Y-41712D01*
X70421Y-41741D01*
X70310Y-41766D01*
X70199Y-41787D01*
X70088Y-41805D01*
X69975Y-41818D01*
X69863Y-41828D01*
X69750Y-41834D01*
X69637Y-41836D01*
X69637Y-41835D02*
X66159Y-41835D01*
X66159Y-41836D02*
X66049Y-41834D01*
X65939Y-41828D01*
X65830Y-41818D01*
X65720Y-41805D01*
X65612Y-41787D01*
X65504Y-41765D01*
X65397Y-41740D01*
X65291Y-41711D01*
X65186Y-41678D01*
X65082Y-41641D01*
X64980Y-41601D01*
X64879Y-41557D01*
X64780Y-41509D01*
X64682Y-41458D01*
X64587Y-41404D01*
X64493Y-41346D01*
X64402Y-41285D01*
X64312Y-41220D01*
X64226Y-41153D01*
X64141Y-41082D01*
X64060Y-41008D01*
X63980Y-40932D01*
X63904Y-40853D01*
X63831Y-40771D01*
X63760Y-40686D01*
X63693Y-40599D01*
X63629Y-40510D01*
X63568Y-40418D01*
X63510Y-40325D01*
X63456Y-40229D01*
X63405Y-40131D01*
X63358Y-40032D01*
X63314Y-39931D01*
X63274Y-39829D01*
X63237Y-39725D01*
X63205Y-39620D01*
X63176Y-39514D01*
X63151Y-39406D01*
X63130Y-39298D01*
X63112Y-39190D01*
X63099Y-39081D01*
X63089Y-38971D01*
X64317Y-31263D02*
X69228Y-31263D01*
X69228Y-27580D01*
X69226Y-27511D01*
X69220Y-27443D01*
X69211Y-27374D01*
X69197Y-27307D01*
X69180Y-27240D01*
X69159Y-27174D01*
X69135Y-27110D01*
X69106Y-27047D01*
X69075Y-26986D01*
X69040Y-26927D01*
X69002Y-26869D01*
X68960Y-26814D01*
X68916Y-26762D01*
X68868Y-26712D01*
X68818Y-26664D01*
X68766Y-26620D01*
X68711Y-26579D01*
X68653Y-26540D01*
X68594Y-26505D01*
X68533Y-26474D01*
X68470Y-26445D01*
X68406Y-26421D01*
X68340Y-26400D01*
X68273Y-26383D01*
X68206Y-26369D01*
X68138Y-26360D01*
X68069Y-26354D01*
X68000Y-26352D01*
X68000Y-26353D02*
X64317Y-26353D01*
X64317Y-28808D02*
X69228Y-28808D01*
X67182Y-21495D02*
X67182Y-19653D01*
X67181Y-21495D02*
X67179Y-21570D01*
X67173Y-21645D01*
X67163Y-21719D01*
X67150Y-21793D01*
X67132Y-21866D01*
X67111Y-21938D01*
X67086Y-22008D01*
X67057Y-22077D01*
X67025Y-22145D01*
X66989Y-22211D01*
X66950Y-22275D01*
X66908Y-22337D01*
X66862Y-22396D01*
X66813Y-22453D01*
X66762Y-22508D01*
X66707Y-22559D01*
X66650Y-22608D01*
X66591Y-22654D01*
X66529Y-22696D01*
X66465Y-22735D01*
X66399Y-22771D01*
X66331Y-22803D01*
X66262Y-22832D01*
X66192Y-22857D01*
X66120Y-22878D01*
X66047Y-22896D01*
X65973Y-22909D01*
X65899Y-22919D01*
X65824Y-22925D01*
X65749Y-22927D01*
X65674Y-22925D01*
X65599Y-22919D01*
X65525Y-22909D01*
X65451Y-22896D01*
X65378Y-22878D01*
X65306Y-22857D01*
X65236Y-22832D01*
X65167Y-22803D01*
X65099Y-22771D01*
X65033Y-22735D01*
X64969Y-22696D01*
X64907Y-22654D01*
X64848Y-22608D01*
X64791Y-22559D01*
X64736Y-22508D01*
X64685Y-22453D01*
X64636Y-22396D01*
X64590Y-22337D01*
X64548Y-22275D01*
X64509Y-22211D01*
X64473Y-22145D01*
X64441Y-22077D01*
X64412Y-22008D01*
X64387Y-21938D01*
X64366Y-21866D01*
X64348Y-21793D01*
X64335Y-21719D01*
X64325Y-21645D01*
X64319Y-21570D01*
X64317Y-21495D01*
X64317Y-19653D01*
X68000Y-19653D01*
X68069Y-19655D01*
X68137Y-19661D01*
X68206Y-19670D01*
X68273Y-19684D01*
X68340Y-19701D01*
X68406Y-19722D01*
X68470Y-19746D01*
X68533Y-19775D01*
X68594Y-19806D01*
X68653Y-19841D01*
X68711Y-19879D01*
X68766Y-19921D01*
X68818Y-19965D01*
X68868Y-20013D01*
X68916Y-20063D01*
X68960Y-20115D01*
X69002Y-20170D01*
X69040Y-20228D01*
X69075Y-20287D01*
X69106Y-20348D01*
X69135Y-20411D01*
X69159Y-20475D01*
X69180Y-20541D01*
X69197Y-20608D01*
X69211Y-20675D01*
X69220Y-20744D01*
X69226Y-20812D01*
X69228Y-20881D01*
X69228Y-22518D01*
X71683Y-15964D02*
X64317Y-15964D01*
X66772Y-15964D02*
X69228Y-12690D01*
X67795Y-14532D02*
X64317Y-12690D01*
X64317Y-8735D02*
X64317Y-6689D01*
X64317Y-8735D02*
X64319Y-8804D01*
X64325Y-8872D01*
X64334Y-8941D01*
X64348Y-9008D01*
X64365Y-9075D01*
X64386Y-9141D01*
X64410Y-9205D01*
X64439Y-9268D01*
X64470Y-9329D01*
X64505Y-9388D01*
X64543Y-9446D01*
X64585Y-9501D01*
X64629Y-9553D01*
X64677Y-9603D01*
X64727Y-9651D01*
X64779Y-9695D01*
X64834Y-9737D01*
X64892Y-9775D01*
X64951Y-9810D01*
X65012Y-9841D01*
X65075Y-9870D01*
X65139Y-9894D01*
X65205Y-9915D01*
X65272Y-9932D01*
X65339Y-9946D01*
X65408Y-9955D01*
X65476Y-9961D01*
X65545Y-9963D01*
X65545Y-9962D02*
X67591Y-9962D01*
X67591Y-9963D02*
X67670Y-9961D01*
X67749Y-9955D01*
X67828Y-9946D01*
X67906Y-9933D01*
X67983Y-9915D01*
X68059Y-9895D01*
X68134Y-9870D01*
X68208Y-9842D01*
X68281Y-9811D01*
X68352Y-9775D01*
X68421Y-9737D01*
X68488Y-9695D01*
X68553Y-9650D01*
X68616Y-9602D01*
X68677Y-9551D01*
X68734Y-9497D01*
X68790Y-9441D01*
X68842Y-9382D01*
X68892Y-9320D01*
X68938Y-9256D01*
X68982Y-9190D01*
X69022Y-9122D01*
X69058Y-9052D01*
X69092Y-8980D01*
X69122Y-8906D01*
X69148Y-8832D01*
X69171Y-8756D01*
X69189Y-8679D01*
X69205Y-8602D01*
X69216Y-8523D01*
X69224Y-8445D01*
X69228Y-8366D01*
X69228Y-8286D01*
X69224Y-8207D01*
X69216Y-8129D01*
X69205Y-8050D01*
X69189Y-7973D01*
X69171Y-7896D01*
X69148Y-7820D01*
X69122Y-7746D01*
X69092Y-7672D01*
X69058Y-7600D01*
X69022Y-7530D01*
X68982Y-7462D01*
X68938Y-7396D01*
X68892Y-7332D01*
X68842Y-7270D01*
X68790Y-7211D01*
X68734Y-7155D01*
X68677Y-7101D01*
X68616Y-7050D01*
X68553Y-7002D01*
X68488Y-6957D01*
X68421Y-6915D01*
X68352Y-6877D01*
X68281Y-6841D01*
X68208Y-6810D01*
X68134Y-6782D01*
X68059Y-6757D01*
X67983Y-6737D01*
X67906Y-6719D01*
X67828Y-6706D01*
X67749Y-6697D01*
X67670Y-6691D01*
X67591Y-6689D01*
X66772Y-6689D01*
X66772Y-9962D01*
X64317Y-3333D02*
X69228Y-3333D01*
X69228Y-877D01*
X68409Y-877D01*
X64726Y1223D02*
X64317Y1223D01*
X64726Y1223D02*
X64726Y1633D01*
X64317Y1633D01*
X64317Y1223D01*
X64317Y4825D02*
X69228Y4825D01*
X69228Y8508D01*
X69226Y8577D01*
X69220Y8645D01*
X69211Y8714D01*
X69197Y8781D01*
X69180Y8848D01*
X69159Y8914D01*
X69135Y8978D01*
X69106Y9041D01*
X69075Y9102D01*
X69040Y9161D01*
X69002Y9219D01*
X68960Y9274D01*
X68916Y9326D01*
X68868Y9376D01*
X68818Y9424D01*
X68766Y9468D01*
X68711Y9510D01*
X68653Y9548D01*
X68594Y9583D01*
X68533Y9614D01*
X68470Y9643D01*
X68406Y9667D01*
X68340Y9688D01*
X68273Y9705D01*
X68206Y9719D01*
X68137Y9728D01*
X68069Y9734D01*
X68000Y9736D01*
X68000Y9735D02*
X64317Y9735D01*
X64317Y7280D02*
X69228Y7280D01*
X67591Y13202D02*
X65954Y13202D01*
X67591Y13202D02*
X67670Y13204D01*
X67749Y13210D01*
X67828Y13219D01*
X67906Y13232D01*
X67983Y13250D01*
X68059Y13270D01*
X68134Y13295D01*
X68208Y13323D01*
X68281Y13354D01*
X68352Y13390D01*
X68421Y13428D01*
X68488Y13470D01*
X68553Y13515D01*
X68616Y13563D01*
X68677Y13614D01*
X68734Y13668D01*
X68790Y13724D01*
X68842Y13783D01*
X68892Y13845D01*
X68938Y13909D01*
X68982Y13975D01*
X69022Y14043D01*
X69058Y14113D01*
X69092Y14185D01*
X69122Y14259D01*
X69148Y14333D01*
X69171Y14409D01*
X69189Y14486D01*
X69205Y14563D01*
X69216Y14642D01*
X69224Y14720D01*
X69228Y14799D01*
X69228Y14879D01*
X69224Y14958D01*
X69216Y15036D01*
X69205Y15115D01*
X69189Y15192D01*
X69171Y15269D01*
X69148Y15345D01*
X69122Y15419D01*
X69092Y15493D01*
X69058Y15565D01*
X69022Y15635D01*
X68982Y15703D01*
X68938Y15769D01*
X68892Y15833D01*
X68842Y15895D01*
X68790Y15954D01*
X68734Y16010D01*
X68677Y16064D01*
X68616Y16115D01*
X68553Y16163D01*
X68488Y16208D01*
X68421Y16250D01*
X68352Y16288D01*
X68281Y16324D01*
X68208Y16355D01*
X68134Y16383D01*
X68059Y16408D01*
X67983Y16428D01*
X67906Y16446D01*
X67828Y16459D01*
X67749Y16468D01*
X67670Y16474D01*
X67591Y16476D01*
X65954Y16476D01*
X65875Y16474D01*
X65796Y16468D01*
X65717Y16459D01*
X65639Y16446D01*
X65562Y16428D01*
X65486Y16408D01*
X65411Y16383D01*
X65337Y16355D01*
X65264Y16324D01*
X65193Y16288D01*
X65124Y16250D01*
X65057Y16208D01*
X64992Y16163D01*
X64929Y16115D01*
X64868Y16064D01*
X64811Y16010D01*
X64755Y15954D01*
X64703Y15895D01*
X64653Y15833D01*
X64607Y15769D01*
X64563Y15703D01*
X64523Y15635D01*
X64487Y15565D01*
X64453Y15493D01*
X64423Y15419D01*
X64397Y15345D01*
X64374Y15269D01*
X64356Y15192D01*
X64340Y15115D01*
X64329Y15036D01*
X64321Y14958D01*
X64317Y14879D01*
X64317Y14799D01*
X64321Y14720D01*
X64329Y14642D01*
X64340Y14563D01*
X64356Y14486D01*
X64374Y14409D01*
X64397Y14333D01*
X64423Y14259D01*
X64453Y14185D01*
X64487Y14113D01*
X64523Y14043D01*
X64563Y13975D01*
X64607Y13909D01*
X64653Y13845D01*
X64703Y13783D01*
X64755Y13724D01*
X64811Y13668D01*
X64868Y13614D01*
X64929Y13563D01*
X64992Y13515D01*
X65057Y13470D01*
X65124Y13428D01*
X65193Y13390D01*
X65264Y13354D01*
X65337Y13323D01*
X65411Y13295D01*
X65486Y13270D01*
X65562Y13250D01*
X65639Y13232D01*
X65717Y13219D01*
X65796Y13210D01*
X65875Y13204D01*
X65954Y13202D01*
X64317Y20770D02*
X64317Y22816D01*
X64317Y20770D02*
X64319Y20701D01*
X64325Y20633D01*
X64334Y20564D01*
X64348Y20497D01*
X64365Y20430D01*
X64386Y20364D01*
X64410Y20300D01*
X64439Y20237D01*
X64470Y20176D01*
X64505Y20117D01*
X64543Y20059D01*
X64585Y20004D01*
X64629Y19952D01*
X64677Y19902D01*
X64727Y19854D01*
X64779Y19810D01*
X64834Y19768D01*
X64892Y19730D01*
X64951Y19695D01*
X65012Y19664D01*
X65075Y19635D01*
X65139Y19611D01*
X65205Y19590D01*
X65272Y19573D01*
X65339Y19559D01*
X65408Y19550D01*
X65476Y19544D01*
X65545Y19542D01*
X67591Y19542D01*
X67670Y19544D01*
X67749Y19550D01*
X67828Y19559D01*
X67906Y19572D01*
X67983Y19590D01*
X68059Y19610D01*
X68134Y19635D01*
X68208Y19663D01*
X68281Y19694D01*
X68352Y19730D01*
X68421Y19768D01*
X68488Y19810D01*
X68553Y19855D01*
X68616Y19903D01*
X68677Y19954D01*
X68734Y20008D01*
X68790Y20064D01*
X68842Y20123D01*
X68892Y20185D01*
X68938Y20249D01*
X68982Y20315D01*
X69022Y20383D01*
X69058Y20453D01*
X69092Y20525D01*
X69122Y20599D01*
X69148Y20673D01*
X69171Y20749D01*
X69189Y20826D01*
X69205Y20903D01*
X69216Y20982D01*
X69224Y21060D01*
X69228Y21139D01*
X69228Y21219D01*
X69224Y21298D01*
X69216Y21376D01*
X69205Y21455D01*
X69189Y21532D01*
X69171Y21609D01*
X69148Y21685D01*
X69122Y21759D01*
X69092Y21833D01*
X69058Y21905D01*
X69022Y21975D01*
X68982Y22043D01*
X68938Y22109D01*
X68892Y22173D01*
X68842Y22235D01*
X68790Y22294D01*
X68734Y22350D01*
X68677Y22404D01*
X68616Y22455D01*
X68553Y22503D01*
X68488Y22548D01*
X68421Y22590D01*
X68352Y22628D01*
X68281Y22664D01*
X68208Y22695D01*
X68134Y22723D01*
X68059Y22748D01*
X67983Y22768D01*
X67906Y22786D01*
X67828Y22799D01*
X67749Y22808D01*
X67670Y22814D01*
X67591Y22816D01*
X66772Y22816D01*
X66772Y19542D01*
X64317Y26220D02*
X71683Y26220D01*
X69228Y29494D02*
X66772Y26220D01*
X67795Y27652D02*
X64317Y29494D01*
X65954Y32222D02*
X67591Y32222D01*
X67670Y32224D01*
X67749Y32230D01*
X67828Y32239D01*
X67906Y32252D01*
X67983Y32270D01*
X68059Y32290D01*
X68134Y32315D01*
X68208Y32343D01*
X68281Y32374D01*
X68352Y32410D01*
X68421Y32448D01*
X68488Y32490D01*
X68553Y32535D01*
X68616Y32583D01*
X68677Y32634D01*
X68734Y32688D01*
X68790Y32744D01*
X68842Y32803D01*
X68892Y32865D01*
X68938Y32929D01*
X68982Y32995D01*
X69022Y33063D01*
X69058Y33133D01*
X69092Y33205D01*
X69122Y33279D01*
X69148Y33353D01*
X69171Y33429D01*
X69189Y33506D01*
X69205Y33583D01*
X69216Y33662D01*
X69224Y33740D01*
X69228Y33819D01*
X69228Y33899D01*
X69224Y33978D01*
X69216Y34056D01*
X69205Y34135D01*
X69189Y34212D01*
X69171Y34289D01*
X69148Y34365D01*
X69122Y34439D01*
X69092Y34513D01*
X69058Y34585D01*
X69022Y34655D01*
X68982Y34723D01*
X68938Y34789D01*
X68892Y34853D01*
X68842Y34915D01*
X68790Y34974D01*
X68734Y35030D01*
X68677Y35084D01*
X68616Y35135D01*
X68553Y35183D01*
X68488Y35228D01*
X68421Y35270D01*
X68352Y35308D01*
X68281Y35344D01*
X68208Y35375D01*
X68134Y35403D01*
X68059Y35428D01*
X67983Y35448D01*
X67906Y35466D01*
X67828Y35479D01*
X67749Y35488D01*
X67670Y35494D01*
X67591Y35496D01*
X67591Y35495D02*
X65954Y35495D01*
X65954Y35496D02*
X65875Y35494D01*
X65796Y35488D01*
X65717Y35479D01*
X65639Y35466D01*
X65562Y35448D01*
X65486Y35428D01*
X65411Y35403D01*
X65337Y35375D01*
X65264Y35344D01*
X65193Y35308D01*
X65124Y35270D01*
X65057Y35228D01*
X64992Y35183D01*
X64929Y35135D01*
X64868Y35084D01*
X64811Y35030D01*
X64755Y34974D01*
X64703Y34915D01*
X64653Y34853D01*
X64607Y34789D01*
X64563Y34723D01*
X64523Y34655D01*
X64487Y34585D01*
X64453Y34513D01*
X64423Y34439D01*
X64397Y34365D01*
X64374Y34289D01*
X64356Y34212D01*
X64340Y34135D01*
X64329Y34056D01*
X64321Y33978D01*
X64317Y33899D01*
X64317Y33819D01*
X64321Y33740D01*
X64329Y33662D01*
X64340Y33583D01*
X64356Y33506D01*
X64374Y33429D01*
X64397Y33353D01*
X64423Y33279D01*
X64453Y33205D01*
X64487Y33133D01*
X64523Y33063D01*
X64563Y32995D01*
X64607Y32929D01*
X64653Y32865D01*
X64703Y32803D01*
X64755Y32744D01*
X64811Y32688D01*
X64868Y32634D01*
X64929Y32583D01*
X64992Y32535D01*
X65057Y32490D01*
X65124Y32448D01*
X65193Y32410D01*
X65264Y32374D01*
X65337Y32343D01*
X65411Y32315D01*
X65486Y32290D01*
X65562Y32270D01*
X65639Y32252D01*
X65717Y32239D01*
X65796Y32230D01*
X65875Y32224D01*
X65954Y32222D01*
X64317Y39789D02*
X64317Y41835D01*
X64317Y39789D02*
X64319Y39720D01*
X64325Y39652D01*
X64334Y39583D01*
X64348Y39516D01*
X64365Y39449D01*
X64386Y39383D01*
X64410Y39319D01*
X64439Y39256D01*
X64470Y39195D01*
X64505Y39136D01*
X64543Y39078D01*
X64585Y39023D01*
X64629Y38971D01*
X64677Y38921D01*
X64727Y38873D01*
X64779Y38829D01*
X64834Y38787D01*
X64892Y38749D01*
X64951Y38714D01*
X65012Y38683D01*
X65075Y38654D01*
X65139Y38630D01*
X65205Y38609D01*
X65272Y38592D01*
X65339Y38578D01*
X65408Y38569D01*
X65476Y38563D01*
X65545Y38561D01*
X65545Y38562D02*
X67591Y38562D01*
X67591Y38561D02*
X67670Y38563D01*
X67749Y38569D01*
X67828Y38578D01*
X67906Y38591D01*
X67983Y38609D01*
X68059Y38629D01*
X68134Y38654D01*
X68208Y38682D01*
X68281Y38713D01*
X68352Y38749D01*
X68421Y38787D01*
X68488Y38829D01*
X68553Y38874D01*
X68616Y38922D01*
X68677Y38973D01*
X68734Y39027D01*
X68790Y39083D01*
X68842Y39142D01*
X68892Y39204D01*
X68938Y39268D01*
X68982Y39334D01*
X69022Y39402D01*
X69058Y39472D01*
X69092Y39544D01*
X69122Y39618D01*
X69148Y39692D01*
X69171Y39768D01*
X69189Y39845D01*
X69205Y39922D01*
X69216Y40001D01*
X69224Y40079D01*
X69228Y40158D01*
X69228Y40238D01*
X69224Y40317D01*
X69216Y40395D01*
X69205Y40474D01*
X69189Y40551D01*
X69171Y40628D01*
X69148Y40704D01*
X69122Y40778D01*
X69092Y40852D01*
X69058Y40924D01*
X69022Y40994D01*
X68982Y41062D01*
X68938Y41128D01*
X68892Y41192D01*
X68842Y41254D01*
X68790Y41313D01*
X68734Y41369D01*
X68677Y41423D01*
X68616Y41474D01*
X68553Y41522D01*
X68488Y41567D01*
X68421Y41609D01*
X68352Y41647D01*
X68281Y41683D01*
X68208Y41714D01*
X68134Y41742D01*
X68059Y41767D01*
X67983Y41787D01*
X67906Y41805D01*
X67828Y41818D01*
X67749Y41827D01*
X67670Y41833D01*
X67591Y41835D01*
X66772Y41835D01*
X66772Y38562D01*
X59491Y-28529D02*
X57854Y-30575D01*
X59491Y-28529D02*
X52125Y-28529D01*
X52125Y-30575D02*
X52125Y-26483D01*
X53762Y-23260D02*
X59491Y-21623D01*
X53762Y-23260D02*
X53762Y-19168D01*
X55399Y-20396D02*
X52125Y-20396D01*
X52125Y-16298D02*
X52534Y-16298D01*
X52534Y-15889D01*
X52125Y-15889D01*
X52125Y-16298D01*
X57854Y-13019D02*
X59491Y-10973D01*
X52125Y-10973D01*
X52125Y-13019D02*
X52125Y-8927D01*
X57854Y-5704D02*
X59491Y-3658D01*
X52125Y-3658D01*
X52125Y-5704D02*
X52125Y-1612D01*
X52125Y1258D02*
X52534Y1258D01*
X52534Y1668D01*
X52125Y1668D01*
X52125Y1258D01*
X59492Y6788D02*
X59490Y6873D01*
X59484Y6958D01*
X59474Y7042D01*
X59461Y7126D01*
X59443Y7210D01*
X59422Y7292D01*
X59397Y7373D01*
X59368Y7453D01*
X59335Y7532D01*
X59299Y7609D01*
X59259Y7684D01*
X59216Y7758D01*
X59170Y7829D01*
X59120Y7898D01*
X59067Y7965D01*
X59011Y8029D01*
X58952Y8090D01*
X58891Y8149D01*
X58827Y8205D01*
X58760Y8258D01*
X58691Y8308D01*
X58620Y8354D01*
X58546Y8397D01*
X58471Y8437D01*
X58394Y8473D01*
X58315Y8506D01*
X58235Y8535D01*
X58154Y8560D01*
X58072Y8581D01*
X57988Y8599D01*
X57904Y8612D01*
X57820Y8622D01*
X57735Y8628D01*
X57650Y8630D01*
X59491Y6788D02*
X59489Y6692D01*
X59483Y6596D01*
X59473Y6501D01*
X59460Y6406D01*
X59442Y6311D01*
X59421Y6218D01*
X59396Y6125D01*
X59367Y6034D01*
X59335Y5943D01*
X59299Y5854D01*
X59259Y5767D01*
X59216Y5681D01*
X59170Y5597D01*
X59120Y5515D01*
X59066Y5435D01*
X59010Y5358D01*
X58950Y5283D01*
X58888Y5210D01*
X58822Y5140D01*
X58754Y5072D01*
X58683Y5007D01*
X58610Y4946D01*
X58534Y4887D01*
X58455Y4831D01*
X58375Y4779D01*
X58292Y4730D01*
X58208Y4684D01*
X58122Y4642D01*
X58034Y4604D01*
X57945Y4569D01*
X57854Y4537D01*
X56218Y8016D02*
X56277Y8076D01*
X56339Y8133D01*
X56403Y8188D01*
X56470Y8239D01*
X56539Y8288D01*
X56609Y8334D01*
X56682Y8377D01*
X56756Y8417D01*
X56832Y8453D01*
X56910Y8486D01*
X56989Y8516D01*
X57069Y8543D01*
X57150Y8566D01*
X57232Y8585D01*
X57314Y8601D01*
X57398Y8614D01*
X57482Y8623D01*
X57566Y8628D01*
X57650Y8630D01*
X56217Y8016D02*
X52125Y4538D01*
X52125Y8630D01*
X55808Y11853D02*
X55961Y11855D01*
X56114Y11861D01*
X56266Y11870D01*
X56419Y11884D01*
X56571Y11901D01*
X56722Y11922D01*
X56873Y11947D01*
X57023Y11976D01*
X57173Y12008D01*
X57321Y12045D01*
X57469Y12085D01*
X57616Y12128D01*
X57761Y12176D01*
X57905Y12227D01*
X58048Y12281D01*
X58190Y12340D01*
X58329Y12401D01*
X58468Y12467D01*
X58538Y12493D01*
X58608Y12523D01*
X58675Y12556D01*
X58741Y12592D01*
X58805Y12631D01*
X58867Y12674D01*
X58926Y12720D01*
X58984Y12768D01*
X59038Y12819D01*
X59091Y12873D01*
X59140Y12930D01*
X59187Y12989D01*
X59230Y13050D01*
X59271Y13113D01*
X59308Y13178D01*
X59343Y13245D01*
X59373Y13314D01*
X59401Y13384D01*
X59424Y13455D01*
X59445Y13527D01*
X59461Y13600D01*
X59474Y13674D01*
X59484Y13749D01*
X59489Y13824D01*
X59491Y13899D01*
X59489Y13974D01*
X59484Y14049D01*
X59474Y14124D01*
X59461Y14198D01*
X59445Y14271D01*
X59424Y14343D01*
X59401Y14414D01*
X59373Y14484D01*
X59343Y14553D01*
X59308Y14620D01*
X59271Y14685D01*
X59230Y14748D01*
X59187Y14809D01*
X59140Y14868D01*
X59091Y14925D01*
X59038Y14979D01*
X58984Y15030D01*
X58926Y15079D01*
X58867Y15124D01*
X58805Y15167D01*
X58741Y15206D01*
X58675Y15243D01*
X58607Y15275D01*
X58538Y15305D01*
X58468Y15331D01*
X58330Y15396D01*
X58190Y15458D01*
X58048Y15516D01*
X57905Y15571D01*
X57761Y15622D01*
X57616Y15670D01*
X57469Y15713D01*
X57322Y15753D01*
X57173Y15790D01*
X57023Y15822D01*
X56873Y15851D01*
X56722Y15876D01*
X56571Y15897D01*
X56419Y15914D01*
X56266Y15928D01*
X56114Y15937D01*
X55961Y15943D01*
X55808Y15945D01*
X55808Y11852D02*
X55655Y11854D01*
X55502Y11860D01*
X55349Y11869D01*
X55197Y11883D01*
X55045Y11900D01*
X54894Y11921D01*
X54743Y11946D01*
X54592Y11975D01*
X54443Y12007D01*
X54294Y12044D01*
X54147Y12084D01*
X54000Y12127D01*
X53855Y12175D01*
X53710Y12226D01*
X53568Y12281D01*
X53426Y12339D01*
X53286Y12401D01*
X53148Y12466D01*
X53148Y12467D02*
X53077Y12493D01*
X53008Y12523D01*
X52941Y12556D01*
X52875Y12592D01*
X52811Y12631D01*
X52749Y12674D01*
X52690Y12720D01*
X52632Y12768D01*
X52578Y12819D01*
X52525Y12873D01*
X52476Y12930D01*
X52429Y12989D01*
X52386Y13050D01*
X52345Y13113D01*
X52308Y13178D01*
X52273Y13245D01*
X52243Y13314D01*
X52215Y13384D01*
X52192Y13455D01*
X52171Y13527D01*
X52155Y13600D01*
X52142Y13674D01*
X52132Y13749D01*
X52127Y13824D01*
X52125Y13899D01*
X53148Y15331D02*
X53286Y15396D01*
X53426Y15458D01*
X53568Y15516D01*
X53711Y15571D01*
X53855Y15622D01*
X54000Y15670D01*
X54147Y15713D01*
X54295Y15753D01*
X54443Y15790D01*
X54593Y15822D01*
X54743Y15851D01*
X54894Y15876D01*
X55045Y15897D01*
X55197Y15914D01*
X55350Y15928D01*
X55502Y15937D01*
X55655Y15943D01*
X55808Y15945D01*
X53148Y15331D02*
X53078Y15305D01*
X53008Y15275D01*
X52941Y15243D01*
X52875Y15206D01*
X52811Y15167D01*
X52749Y15124D01*
X52690Y15078D01*
X52632Y15030D01*
X52578Y14979D01*
X52525Y14925D01*
X52476Y14868D01*
X52429Y14809D01*
X52386Y14748D01*
X52345Y14685D01*
X52308Y14620D01*
X52273Y14553D01*
X52243Y14484D01*
X52215Y14414D01*
X52192Y14343D01*
X52171Y14271D01*
X52155Y14198D01*
X52142Y14124D01*
X52132Y14049D01*
X52127Y13974D01*
X52125Y13899D01*
X53762Y12262D02*
X57854Y15536D01*
X59492Y21419D02*
X59490Y21504D01*
X59484Y21589D01*
X59474Y21673D01*
X59461Y21757D01*
X59443Y21841D01*
X59422Y21923D01*
X59397Y22004D01*
X59368Y22084D01*
X59335Y22163D01*
X59299Y22240D01*
X59259Y22315D01*
X59216Y22389D01*
X59170Y22460D01*
X59120Y22529D01*
X59067Y22596D01*
X59011Y22660D01*
X58952Y22721D01*
X58891Y22780D01*
X58827Y22836D01*
X58760Y22889D01*
X58691Y22939D01*
X58620Y22985D01*
X58546Y23028D01*
X58471Y23068D01*
X58394Y23104D01*
X58315Y23137D01*
X58235Y23166D01*
X58154Y23191D01*
X58072Y23212D01*
X57988Y23230D01*
X57904Y23243D01*
X57820Y23253D01*
X57735Y23259D01*
X57650Y23261D01*
X59491Y21419D02*
X59489Y21323D01*
X59483Y21227D01*
X59473Y21132D01*
X59460Y21037D01*
X59442Y20942D01*
X59421Y20849D01*
X59396Y20756D01*
X59367Y20665D01*
X59335Y20574D01*
X59299Y20485D01*
X59259Y20398D01*
X59216Y20312D01*
X59170Y20228D01*
X59120Y20146D01*
X59066Y20066D01*
X59010Y19989D01*
X58950Y19914D01*
X58888Y19841D01*
X58822Y19771D01*
X58754Y19703D01*
X58683Y19638D01*
X58610Y19577D01*
X58534Y19518D01*
X58455Y19462D01*
X58375Y19410D01*
X58292Y19361D01*
X58208Y19315D01*
X58122Y19273D01*
X58034Y19235D01*
X57945Y19200D01*
X57854Y19168D01*
X56218Y22646D02*
X56277Y22706D01*
X56339Y22763D01*
X56403Y22818D01*
X56470Y22869D01*
X56539Y22918D01*
X56609Y22964D01*
X56682Y23007D01*
X56756Y23047D01*
X56832Y23083D01*
X56910Y23116D01*
X56989Y23146D01*
X57069Y23173D01*
X57150Y23196D01*
X57232Y23215D01*
X57314Y23231D01*
X57398Y23244D01*
X57482Y23253D01*
X57566Y23258D01*
X57650Y23260D01*
X56217Y22646D02*
X52125Y19168D01*
X52125Y23260D01*
X57854Y26483D02*
X59491Y28529D01*
X52125Y28529D01*
X52125Y26483D02*
X52125Y30575D01*
M02*
