M48
;GenerationSoftware,Autodesk,EAGLE,9.6.2*%
;CreationDate,2022-01-11T08:06:42Z*%
FMAT,2
ICI,OFF
METRIC,TZ,000.000
T3C0.200
T2C0.600
T1C0.650
%
G90
M71
T1
X4900Y2890
X4900Y-2890
T2
X8550Y4320
X8550Y-4320
X4400Y-4320
X4400Y4320
T3
X-2250Y4700
X-1000Y0
X-2200Y0
X200Y0
X-1000Y1200
X-1000Y-1340
X-5000Y2700
X-5600Y2700
X-6200Y2700
X-6800Y2700
X-7400Y2700
X-7000Y2000
X-7250Y-2500
X-7250Y-4500
X-7000Y1310
X8580Y-2020
X-4000Y-2650
X-70Y-3320
X-3350Y-2000
X-3650Y1750
X5600Y3510
X2050Y-3600
X-6700Y-1700
X-6900Y-3410
X-3300Y-4600
X-4350Y-850
X4939Y190
X1331Y-1901
X6800Y-1000
X2400Y-1100
X5441Y-190
X2600Y400
X2450Y-250
X9000Y1800
X3000Y3841
X7550Y1050
X-4540Y-2370
X-1380Y3790
X-3800Y2700
X-4400Y2700
X-4200Y-4200
X1420Y1710
X-810Y3550
M30